# Blender v2.67 (sub 0) OBJ File: 'busxcvrpanel.blend'
# www.blender.org
g panel
v -0.187500 0.000100 0.187500
v -0.187500 0.000100 -0.187500
v 0.187500 0.000100 -0.187500
v 0.187500 0.000100 0.187500
v -0.187500 0.312500 0.187500
v -0.187500 0.312500 -0.187500
v 0.187500 0.312500 -0.187500
v 0.187500 0.312500 0.187500
vt 0.812500 0.687500
vt 1.000000 0.687500
vt 1.000000 0.812500
vt 0.812500 0.812500
vt 1.000000 1.000000
vt 0.812500 1.000000
vn -1.000000 0.000000 0.000000
vn 0.000000 0.000000 -1.000000
vn 1.000000 -0.000000 0.000000
vn 0.000000 -0.000000 1.000000
vn -0.000000 1.000000 0.000000
s off
f 5/1/1 6/2/1 2/3/1 1/4/1
f 6/1/2 7/2/2 3/3/2 2/4/2
f 7/1/3 8/2/3 4/3/3 3/4/3
f 8/1/4 5/2/4 1/3/4 4/4/4
f 8/4/5 7/3/5 6/5/5 5/6/5
