# Blender v2.67 (sub 0) OBJ File: 'cellstand.blend'
# www.blender.org
g stand
v -0.375000 0.625000 -0.375000
v -0.375000 0.125000 -0.375000
v -0.375000 0.125000 -0.310000
v -0.375000 0.125000 0.310000
v -0.375000 0.125000 0.375000
v -0.375000 0.625000 0.375000
v -0.375000 0.562500 0.310000
v -0.375000 0.562500 -0.310000
v -0.312500 0.625000 -0.375000
v -0.312500 0.125000 -0.375000
v -0.312500 0.125000 -0.310000
v -0.312500 0.125000 0.375000
v -0.312500 0.125000 0.310000
v -0.312500 0.625000 0.375000
v -0.312500 0.562500 -0.310000
v -0.312500 0.562500 0.310000
v 0.312500 0.625000 -0.375000
v 0.312500 0.125000 -0.375000
v 0.312500 0.125000 -0.310000
v 0.312500 0.125000 0.310000
v 0.312500 0.125000 0.375000
v 0.312500 0.625000 0.375000
v 0.312500 0.562500 0.310000
v 0.312500 0.562500 -0.310000
v 0.375000 0.625000 -0.375000
v 0.375000 0.125000 -0.375000
v 0.375000 0.125000 -0.310000
v 0.375000 0.125000 0.375000
v 0.375000 0.125000 0.310000
v 0.375000 0.625000 0.375000
v 0.375000 0.562500 -0.310000
v 0.375000 0.562500 0.310000
vt 0.031250 0.937500
vt 0.046875 0.921875
vt 0.203125 0.921875
vt 0.218750 0.937500
vt 0.031250 0.812500
vt 0.046875 0.812500
vt 0.203125 0.812500
vt 0.218750 0.812500
vt 0.000000 0.937500
vt 0.000000 0.812500
vt 0.015625 0.812500
vt 0.015625 0.937500
vt 0.234375 0.937500
vt 0.234375 0.812500
vt 0.250000 0.812500
vt 0.250000 0.937500
vt 0.218750 0.953125
vt 0.218750 0.968750
vt 0.031250 0.968750
vt 0.031250 0.953125
vt 0.203125 0.781250
vt 0.203125 0.796875
vt 0.046875 0.796875
vt 0.046875 0.781250
vt 0.218750 0.984375
vt 0.218750 1.000000
vt 0.031250 1.000000
vt 0.031250 0.984375
vt 0.203125 0.750000
vt 0.203125 0.765625
vt 0.046875 0.765625
vt 0.046875 0.750000
vn -1.000000 0.000000 -0.000000
vn -0.000000 0.000000 -1.000000
vn 1.000000 0.000000 -0.000000
vn -0.000000 0.000000 1.000000
vn 0.000000 1.000000 0.000000
vn 0.000000 -1.000000 0.000000
s off
f 1/1/1 8/2/1 7/3/1 6/4/1
f 1/1/1 2/5/1 3/6/1 8/2/1
f 4/7/1 5/8/1 6/4/1 7/3/1
f 2/9/2 1/10/2 9/11/2 10/12/2
f 14/1/3 16/2/3 15/3/3 9/4/3
f 14/1/3 12/5/3 13/6/3 16/2/3
f 11/7/3 10/8/3 9/4/3 15/3/3
f 12/13/4 14/14/4 6/15/4 5/16/4
f 9/17/5 1/18/5 6/19/5 14/20/5
f 3/14/4 11/15/4 15/16/4 8/13/4
f 7/12/2 16/9/2 13/10/2 4/11/2
f 16/21/6 7/22/6 8/23/6 15/24/6
f 17/1/1 24/2/1 23/3/1 22/4/1
f 17/1/1 18/5/1 19/6/1 24/2/1
f 20/7/1 21/8/1 22/4/1 23/3/1
f 18/9/2 17/10/2 25/11/2 26/12/2
f 30/1/3 32/2/3 31/3/3 25/4/3
f 30/1/3 28/5/3 29/6/3 32/2/3
f 27/7/3 26/8/3 25/4/3 31/3/3
f 28/13/4 30/14/4 22/15/4 21/16/4
f 25/25/5 17/26/5 22/27/5 30/28/5
f 19/14/4 27/15/4 31/16/4 24/13/4
f 23/12/2 32/9/2 29/10/2 20/11/2
f 32/29/6 23/30/6 24/31/6 31/32/6
