# Blender v2.67 (sub 0) OBJ File: 'extendedcelltopwire.blend'
# www.blender.org
g wireup
v 0.501000 0.750000 -0.062500
v -0.062625 0.625000 0.000000
v 0.062625 0.625000 0.062500
v 0.062625 0.625000 -0.062500
v -0.062625 0.625000 -0.031250
v 0.501000 0.625000 -0.062500
v -0.501000 0.625000 -0.062500
v -0.501000 0.625000 0.062500
v 0.501000 0.625000 0.062500
v 0.501000 0.750000 0.062500
v -0.501000 0.750000 -0.062500
v -0.501000 0.750000 0.062500
v -0.062625 0.625000 -0.054687
v -0.062625 0.625000 -0.007812
v -0.062625 0.625000 0.039063
v -0.062625 0.625000 0.054688
v 0.062625 0.500000 -0.062500
v -0.062625 0.500000 -0.062500
v 0.062625 0.500000 0.062500
v -0.062625 0.500000 -0.031250
v -0.062625 0.500000 -0.046875
v -0.062625 0.500000 -0.015625
v -0.062625 0.500000 0.046875
v -0.062625 0.500000 -0.054687
v -0.062625 0.500000 -0.023437
v -0.062625 0.500000 -0.007812
v -0.062625 0.500000 0.023438
v -0.062625 0.500000 0.039063
v -0.062625 0.625000 -0.062500
v -0.062625 0.625000 0.062500
v -0.062625 0.625000 0.031250
v -0.062625 0.625000 -0.046875
v -0.062625 0.625000 -0.015625
v -0.062625 0.625000 0.015625
v -0.062625 0.625000 0.046875
v -0.062625 0.625000 -0.039062
v -0.062625 0.625000 -0.023437
v -0.062625 0.625000 0.007813
v -0.062625 0.625000 0.023438
v -0.062625 0.500000 0.000000
v -0.062625 0.500000 0.062500
v -0.062625 0.500000 0.031250
v -0.062625 0.500000 0.015625
v -0.062625 0.500000 -0.039062
v -0.062625 0.500000 0.007813
v -0.062625 0.500000 0.054688
vt 0.359375 0.687500
vt 0.328125 0.687500
vt 0.328125 0.937500
vt 0.359375 0.937500
vt 0.359375 0.906250
vt 0.328125 0.906250
vt 0.328125 0.875000
vt 0.359375 0.875000
vt 0.359375 0.656250
vt 0.328125 0.656250
vt 0.328125 0.968750
vt 0.359375 0.968750
vt 0.328125 0.750000
vt 0.359375 0.750000
vt 0.359375 0.781250
vt 0.328125 0.781250
vt 0.328125 0.812500
vt 0.359375 0.812500
vt 0.328125 0.843750
vt 0.359375 0.843750
vn 0.000000 -1.000000 -0.000000
vn 1.000000 0.000000 -0.000001
vn -0.000000 1.000000 0.000000
vn -0.000001 0.000000 -1.000000
vn -1.000000 0.000000 0.000001
vn 0.000001 -0.000000 1.000000
s off
f 6/1/1 9/2/1 8/3/1 7/4/1
f 3/5/2 19/6/2 17/7/2 4/8/2
f 1/1/3 11/4/3 12/3/3 10/2/3
f 6/1/2 1/9/2 10/10/2 9/2/2
f 7/3/4 11/4/4 1/1/4 6/2/4
f 8/3/5 12/11/5 11/12/5 7/4/5
f 9/2/6 10/1/6 12/4/6 8/3/6
f 30/13/6 41/14/6 19/15/6 3/16/6
f 30/17/5 29/16/5 18/15/5 41/18/5
f 4/8/4 17/7/4 18/19/4 29/20/4
