# Blender v2.67 (sub 0) OBJ File: 'nullcell.blend'
# www.blender.org
g wireside_w
v -0.376000 0.626000 0.062500
v -0.376000 0.626000 -0.062500
v -0.501000 0.626000 0.062500
v -0.501000 0.626000 -0.062500
v -0.501000 -0.000000 0.062500
v -0.376000 0.000000 0.062500
v -0.501000 -0.000000 -0.062500
v -0.376000 0.000000 -0.062500
vt 0.312500 0.812500
vt 0.312500 0.968750
vt 0.281250 0.968750
vt 0.281250 0.812500
vt 0.328125 1.000000
vt 0.328125 0.968750
vt 0.359375 0.968750
vt 0.359375 1.000000
vt 0.375000 0.968750
vt 0.375000 0.812500
vt 0.406250 0.812500
vt 0.406250 0.968750
vt 0.328125 0.812500
vt 0.359375 0.812500
vt 0.359375 0.656250
vt 0.328125 0.656250
vn -0.000001 -0.000000 -1.000000
vn -0.000000 1.000000 0.000000
vn 0.000001 0.000000 1.000000
vn 1.000000 0.000001 -0.000001
vn -1.000000 -0.000001 0.000000
s off
f 7/1/1 4/2/1 2/3/1 8/4/1
f 4/5/2 3/6/2 1/7/2 2/8/2
f 3/9/3 5/10/3 6/11/3 1/12/3
f 1/6/4 6/13/4 8/14/4 2/7/4
f 4/15/5 7/14/5 5/13/5 3/16/5
g wireside_e
v 0.376000 0.626000 0.062500
v 0.376000 0.626000 -0.062500
v 0.501000 0.626000 0.062500
v 0.501000 0.626000 -0.062500
v 0.501000 -0.000000 0.062500
v 0.376000 0.000000 0.062500
v 0.501000 -0.000000 -0.062500
v 0.376000 0.000000 -0.062500
vt 0.375000 0.812500
vt 0.375000 0.656250
vt 0.406250 0.656250
vt 0.406250 0.812500
vt 0.328125 1.000000
vt 0.328125 0.968750
vt 0.359375 0.968750
vt 0.359375 1.000000
vt 0.328125 0.812500
vt 0.328125 0.656250
vt 0.359375 0.656250
vt 0.359375 0.812500
vt 0.312500 0.656250
vt 0.312500 0.812500
vt 0.281250 0.812500
vt 0.281250 0.656250
vn -1.000000 0.000001 0.000001
vn 1.000000 -0.000001 -0.000001
s off
f 13/17/3 11/18/3 9/19/3 14/20/3
f 11/21/2 12/22/2 10/23/2 9/24/2
f 14/25/6 9/26/6 10/27/6 16/28/6
f 15/28/7 12/23/7 11/22/7 13/25/7
f 12/29/1 15/30/1 16/31/1 10/32/1
g wireup
v 0.501000 0.625000 0.062500
v -0.501000 0.625000 0.062500
v -0.501000 0.625000 -0.062500
v 0.501000 0.625000 -0.062500
v 0.501000 0.750000 0.062500
v -0.501000 0.750000 0.062500
v -0.501000 0.750000 -0.062500
v 0.501000 0.750000 -0.062500
vt 0.375000 0.937500
vt 0.375000 0.687500
vt 0.406250 0.687500
vt 0.406250 0.937500
vt 0.328125 1.000000
vt 0.328125 0.968750
vt 0.359375 0.968750
vt 0.359375 1.000000
vt 0.312500 0.687500
vt 0.312500 0.937500
vt 0.281250 0.937500
vt 0.281250 0.687500
vt 0.328125 0.937500
vt 0.328125 0.687500
vt 0.359375 0.687500
vt 0.359375 0.937500
vn -1.000000 0.000000 0.000001
vn 1.000000 0.000000 -0.000001
vn 0.000000 -1.000000 0.000000
s off
f 21/33/3 22/34/3 18/35/3 17/36/3
f 22/37/8 23/38/8 19/39/8 18/40/8
f 23/41/1 24/42/1 20/43/1 19/44/1
f 24/37/9 21/38/9 17/39/9 20/40/9
f 17/45/10 18/46/10 19/47/10 20/48/10
f 24/47/2 23/48/2 22/45/2 21/46/2
g wiredown
v -0.062500 0.020000 0.501000
v -0.062500 0.020000 -0.501000
v 0.062500 0.020000 -0.501000
v 0.062500 0.020000 0.501000
v -0.062500 0.145000 0.501000
v -0.062500 0.145000 -0.501000
v 0.062500 0.145000 -0.501000
v 0.062500 0.145000 0.501000
vt 0.375000 0.937500
vt 0.375000 0.687500
vt 0.406250 0.687500
vt 0.406250 0.937500
vt 0.328125 1.000000
vt 0.328125 0.968750
vt 0.359375 0.968750
vt 0.359375 1.000000
vt 0.312500 0.687500
vt 0.312500 0.937500
vt 0.281250 0.937500
vt 0.281250 0.687500
vt 0.359375 0.687500
vt 0.359375 0.937500
vt 0.328125 0.937500
vt 0.328125 0.687500
vn -1.000000 0.000000 0.000000
vn 0.000000 0.000000 -1.000000
vn 1.000000 -0.000000 0.000000
vn 0.000000 -0.000000 1.000000
s off
f 29/49/11 30/50/11 26/51/11 25/52/11
f 30/53/12 31/54/12 27/55/12 26/56/12
f 31/57/13 32/58/13 28/59/13 27/60/13
f 32/53/14 29/54/14 25/55/14 28/56/14
f 32/61/2 31/62/2 30/63/2 29/64/2
g stand
v -0.375000 0.625000 -0.375000
v -0.375000 0.125000 -0.375000
v -0.375000 0.125000 -0.310000
v -0.375000 0.125000 0.310000
v -0.375000 0.125000 0.375000
v -0.375000 0.625000 0.375000
v -0.375000 0.562500 0.310000
v -0.375000 0.562500 -0.310000
v -0.312500 0.625000 -0.375000
v -0.312500 0.125000 -0.375000
v -0.312500 0.125000 -0.310000
v -0.312500 0.125000 0.375000
v -0.312500 0.125000 0.310000
v -0.312500 0.625000 0.375000
v -0.312500 0.562500 -0.310000
v -0.312500 0.562500 0.310000
v 0.312500 0.625000 -0.375000
v 0.312500 0.125000 -0.375000
v 0.312500 0.125000 -0.310000
v 0.312500 0.125000 0.310000
v 0.312500 0.125000 0.375000
v 0.312500 0.625000 0.375000
v 0.312500 0.562500 0.310000
v 0.312500 0.562500 -0.310000
v 0.375000 0.625000 -0.375000
v 0.375000 0.125000 -0.375000
v 0.375000 0.125000 -0.310000
v 0.375000 0.125000 0.375000
v 0.375000 0.125000 0.310000
v 0.375000 0.625000 0.375000
v 0.375000 0.562500 -0.310000
v 0.375000 0.562500 0.310000
vt 0.031250 0.937500
vt 0.046875 0.921875
vt 0.203125 0.921875
vt 0.218750 0.937500
vt 0.031250 0.812500
vt 0.046875 0.812500
vt 0.203125 0.812500
vt 0.218750 0.812500
vt 0.000000 0.937500
vt 0.000000 0.812500
vt 0.015625 0.812500
vt 0.015625 0.937500
vt 0.234375 0.937500
vt 0.234375 0.812500
vt 0.250000 0.812500
vt 0.250000 0.937500
vt 0.218750 0.953125
vt 0.218750 0.968750
vt 0.031250 0.968750
vt 0.031250 0.953125
vt 0.203125 0.781250
vt 0.203125 0.796875
vt 0.046875 0.796875
vt 0.046875 0.781250
vt 0.218750 0.984375
vt 0.218750 1.000000
vt 0.031250 1.000000
vt 0.031250 0.984375
vt 0.203125 0.750000
vt 0.203125 0.765625
vt 0.046875 0.765625
vt 0.046875 0.750000
s off
f 33/65/11 40/66/11 39/67/11 38/68/11
f 33/65/11 34/69/11 35/70/11 40/66/11
f 36/71/11 37/72/11 38/68/11 39/67/11
f 34/73/12 33/74/12 41/75/12 42/76/12
f 46/65/13 48/66/13 47/67/13 41/68/13
f 46/65/13 44/69/13 45/70/13 48/66/13
f 43/71/13 42/72/13 41/68/13 47/67/13
f 44/77/14 46/78/14 38/79/14 37/80/14
f 41/81/2 33/82/2 38/83/2 46/84/2
f 35/78/14 43/79/14 47/80/14 40/77/14
f 39/76/12 48/73/12 45/74/12 36/75/12
f 48/85/10 39/86/10 40/87/10 47/88/10
f 49/65/11 56/66/11 55/67/11 54/68/11
f 49/65/11 50/69/11 51/70/11 56/66/11
f 52/71/11 53/72/11 54/68/11 55/67/11
f 50/73/12 49/74/12 57/75/12 58/76/12
f 62/65/13 64/66/13 63/67/13 57/68/13
f 62/65/13 60/69/13 61/70/13 64/66/13
f 59/71/13 58/72/13 57/68/13 63/67/13
f 60/77/14 62/78/14 54/79/14 53/80/14
f 57/89/2 49/90/2 54/91/2 62/92/2
f 51/78/14 59/79/14 63/80/14 56/77/14
f 55/76/12 64/73/12 61/74/12 52/75/12
f 64/93/10 55/94/10 56/95/10 63/96/10
