# Blender v2.67 (sub 0) OBJ File: 'solar.blend'
# www.blender.org
g sensor
v -0.312500 0.202500 -0.250000
v -0.312500 0.125000 -0.250000
v -0.312500 0.125000 0.250000
v -0.312500 0.202500 0.250000
v 0.312500 0.202500 -0.250000
v 0.312500 0.125000 -0.250000
v 0.312500 0.125000 0.250000
v 0.312500 0.202500 0.250000
v -0.250000 0.202500 0.187500
v -0.250000 0.202500 -0.187500
v 0.250000 0.202500 0.187500
v 0.250000 0.202500 -0.187500
v -0.250000 0.180000 -0.187500
v -0.250000 0.180000 0.187500
v 0.250000 0.180000 -0.187500
v 0.250000 0.180000 0.187500
vt 0.656250 0.500000
vt 0.718750 0.500000
vt 0.718750 1.000000
vt 0.656250 1.000000
vt 0.625000 0.406250
vt 0.625000 0.468750
vt 0.000000 0.468750
vt 0.000000 0.406250
vt 0.750000 0.500000
vt 0.812500 0.500000
vt 0.812500 1.000000
vt 0.750000 1.000000
vt 0.625000 0.312500
vt 0.625000 0.375000
vt 0.000000 0.375000
vt 0.000000 0.312500
vt 0.000000 0.500000
vt 0.625000 0.500000
vt 0.562500 0.562500
vt 0.062500 0.562500
vt 0.062500 0.937500
vt 0.000000 1.000000
vt 0.562500 0.937500
vt 0.625000 1.000000
vt 0.593750 0.562500
vt 0.593750 0.937500
vt 0.562500 0.531250
vt 0.062500 0.531250
vt 0.031250 0.562500
vt 0.031250 0.937500
vt 0.062500 0.968750
vt 0.562500 0.968750
vn -1.000000 0.000000 -0.000000
vn -0.000000 0.000000 -1.000000
vn 1.000000 0.000000 -0.000000
vn -0.000000 0.000000 1.000000
vn 0.000000 1.000000 0.000000
s off
f 1/1/1 2/2/1 3/3/1 4/4/1
f 2/5/2 1/6/2 5/7/2 6/8/2
f 8/9/3 7/10/3 6/11/3 5/12/3
f 7/13/4 8/14/4 4/15/4 3/16/4
f 5/17/5 1/18/5 10/19/5 12/20/5
f 11/21/5 8/22/5 5/17/5 12/20/5
f 9/23/5 4/24/5 8/22/5 11/21/5
f 1/18/5 4/24/5 9/23/5 10/19/5
f 9/19/3 14/25/3 13/26/3 10/23/3
f 10/27/4 13/19/4 15/20/4 12/28/4
f 12/29/1 15/20/1 16/21/1 11/30/1
f 11/31/2 16/21/2 14/23/2 9/32/2
f 16/21/5 15/20/5 13/19/5 14/23/5
