# Blender v2.67 (sub 0) OBJ File: 'nullcellbottomwire.blend'
# www.blender.org
g wire
v -0.062500 0.020100 0.501000
v -0.062500 0.020100 -0.501000
v 0.062500 0.020100 -0.501000
v 0.062500 0.020100 0.501000
v -0.062500 0.145100 0.501000
v -0.062500 0.145100 -0.501000
v 0.062500 0.145100 -0.501000
v 0.062500 0.145100 0.501000
vt 0.375000 0.937500
vt 0.375000 0.687500
vt 0.406250 0.687500
vt 0.406250 0.937500
vt 0.328125 1.000000
vt 0.328125 0.968750
vt 0.359375 0.968750
vt 0.359375 1.000000
vt 0.312500 0.687500
vt 0.312500 0.937500
vt 0.281250 0.937500
vt 0.281250 0.687500
vt 0.359375 0.687500
vt 0.359375 0.937500
vt 0.328125 0.937500
vt 0.328125 0.687500
vn -1.000000 0.000000 0.000000
vn 0.000000 0.000000 -1.000000
vn 1.000000 -0.000000 0.000000
vn 0.000000 -0.000000 1.000000
vn -0.000000 1.000000 0.000000
s off
f 5/1/1 6/2/1 2/3/1 1/4/1
f 6/5/2 7/6/2 3/7/2 2/8/2
f 7/9/3 8/10/3 4/11/3 3/12/3
f 8/5/4 5/6/4 1/7/4 4/8/4
f 8/13/5 7/14/5 6/15/5 5/16/5
