# Blender v2.67 (sub 0) OBJ File: 'cellsidewire.blend'
# www.blender.org
g sidewire
v 0.062500 0.626000 0.062500
v 0.062500 0.626000 -0.062500
v -0.062500 0.626000 0.062500
v -0.062500 0.626000 -0.062500
v -0.062500 -0.000000 0.062500
v 0.062500 0.000000 0.062500
v -0.062500 -0.000000 -0.062500
v 0.062500 0.000000 -0.062500
vt 0.312500 0.812500
vt 0.312500 0.968750
vt 0.281250 0.968750
vt 0.281250 0.812500
vt 0.375000 0.968750
vt 0.375000 0.812500
vt 0.406250 0.812500
vt 0.406250 0.968750
vt 0.328125 0.968750
vt 0.328125 0.812500
vt 0.359375 0.812500
vt 0.359375 0.968750
vt 0.359375 0.656250
vt 0.328125 0.656250
vn -0.000001 -0.000000 -1.000000
vn 0.000001 0.000000 1.000000
vn 1.000000 0.000001 -0.000001
vn -1.000000 -0.000001 0.000001
s off
f 7/1/1 4/2/1 2/3/1 8/4/1
f 3/5/2 5/6/2 6/7/2 1/8/2
f 1/9/3 6/10/3 8/11/3 2/12/3
f 4/13/4 7/11/4 5/10/4 3/14/4
