# Blender v2.67 (sub 0) OBJ File: 'rainsensor.blend'
# www.blender.org
g Cube.001
v -0.125000 0.375000 0.125000
v -0.125000 0.375000 -0.125000
v 0.125000 0.375000 -0.125000
v 0.125000 0.375000 0.125000
v -0.125000 0.437500 0.125000
v -0.125000 0.437500 -0.125000
v 0.125000 0.437500 -0.125000
v 0.125000 0.437500 0.125000
vt 0.625000 0.671875
vt 0.625000 0.796875
vt 0.593750 0.796875
vt 0.593750 0.671875
vt 0.578125 0.671875
vt 0.578125 0.796875
vt 0.546875 0.796875
vt 0.546875 0.671875
vt 1.000000 0.998980
vt 0.667686 1.000000
vt 0.666667 0.667686
vt 0.998980 0.666667
vt 0.406250 0.796875
vt 0.406250 0.671875
vt 0.531250 0.671875
vt 0.531250 0.796875
vn -1.000000 0.000000 0.000000
vn 0.000000 0.000000 -1.000000
vn 1.000000 -0.000000 0.000000
vn 0.000000 -0.000000 1.000000
vn -0.000000 -1.000000 0.000000
vn -0.000000 1.000000 0.000000
s off
f 5/1/1 6/2/1 2/3/1 1/4/1
f 6/5/2 7/6/2 3/7/2 2/8/2
f 7/3/3 8/4/3 4/1/3 3/2/3
f 8/7/4 5/8/4 1/5/4 4/6/4
f 1/9/5 2/10/5 3/11/5 4/12/5
f 8/13/6 7/14/6 6/15/6 5/16/6
g Cube
v -0.187500 0.125000 0.187500
v -0.187500 0.125000 -0.187500
v 0.187500 0.125000 -0.187500
v 0.187500 0.125000 0.187500
v -0.187500 0.375000 0.187500
v -0.187500 0.375000 -0.187500
v 0.187500 0.375000 -0.187500
v 0.187500 0.375000 0.187500
vt 0.187500 1.000000
vt 0.000000 1.000000
vt 0.000000 0.750000
vt 0.187500 0.750000
vt 0.390625 0.734375
vt 0.203125 0.734375
vt 0.203125 0.484375
vt 0.390625 0.484375
vt 0.390625 1.000000
vt 0.203125 1.000000
vt 0.203125 0.750000
vt 0.390625 0.750000
vt 0.187500 0.734375
vt 0.000000 0.734375
vt 0.000000 0.484375
vt 0.187500 0.484375
vt 0.000000 0.000000
vt 0.406250 1.000000
vt 0.406250 0.812500
vt 0.593750 0.812500
vt 0.593750 1.000000
s off
f 13/17/1 14/18/1 10/19/1 9/20/1
f 14/21/2 15/22/2 11/23/2 10/24/2
f 15/25/3 16/26/3 12/27/3 11/28/3
f 16/29/4 13/30/4 9/31/4 12/32/4
f 9/33/5 10/33/5 11/33/5 12/33/5
f 16/34/6 15/35/6 14/36/6 13/37/6
