# Blender v2.67 (sub 0) OBJ File: 'bundledtranceiver.blend'
# www.blender.org
g lightpanel2_lightpanel2.001
v 0.062500 0.000100 0.187500
v 0.062500 0.000100 -0.187500
v 0.437500 0.000100 -0.187500
v 0.437500 0.000100 0.187500
v 0.062500 0.312500 0.187500
v 0.062500 0.312500 -0.187500
v 0.437500 0.312500 -0.187500
v 0.437500 0.312500 0.187500
vt 0.812500 0.687500
vt 1.000000 0.687500
vt 1.000000 0.812500
vt 0.812500 0.812500
vt 0.000000 0.000000
vt 1.000000 0.000000
vt 1.000000 1.000000
vt 0.000000 1.000000
vt 0.812500 1.000000
vn -1.000000 0.000000 0.000000
vn 0.000000 0.000000 -1.000000
vn 1.000000 -0.000000 0.000000
vn 0.000000 -0.000000 1.000000
vn -0.000000 -1.000000 0.000000
vn -0.000000 1.000000 0.000000
s off
f 5/1/1 6/2/1 2/3/1 1/4/1
f 6/1/2 7/2/2 3/3/2 2/4/2
f 7/1/3 8/2/3 4/3/3 3/4/3
f 8/1/4 5/2/4 1/3/4 4/4/4
f 1/5/5 2/6/5 3/7/5 4/8/5
f 8/4/6 7/3/6 6/7/6 5/9/6
g lightpanel1
v -0.437500 0.000100 0.187500
v -0.437500 0.000100 -0.187500
v -0.062500 0.000100 -0.187500
v -0.062500 0.000100 0.187500
v -0.437500 0.312500 0.187500
v -0.437500 0.312500 -0.187500
v -0.062500 0.312500 -0.187500
v -0.062500 0.312500 0.187500
vt 0.812500 0.687500
vt 1.000000 0.687500
vt 1.000000 0.812500
vt 0.812500 0.812500
vt 0.000000 0.000000
vt 1.000000 0.000000
vt 1.000000 1.000000
vt 0.000000 1.000000
vt 0.812500 1.000000
s off
f 13/10/1 14/11/1 10/12/1 9/13/1
f 14/10/2 15/11/2 11/12/2 10/13/2
f 15/10/3 16/11/3 12/12/3 11/13/3
f 16/10/4 13/11/4 9/12/4 12/13/4
f 9/14/5 10/15/5 11/16/5 12/17/5
f 16/13/6 15/12/6 14/16/6 13/18/6
g end_s
v -0.187500 0.000000 -0.437500
v -0.187500 0.000000 -0.500100
v 0.187500 0.000000 -0.500100
v 0.187500 0.000000 -0.437500
v -0.187500 0.250000 -0.437500
v -0.187500 0.250000 -0.500100
v 0.187500 0.250000 -0.500100
v 0.187500 0.250000 -0.437500
vt 0.500000 0.281250
vt 0.500000 0.250000
vt 0.625000 0.250000
vt 0.625000 0.281250
vt 0.406250 0.281250
vt 0.218750 0.281250
vt 0.218750 0.156250
vt 0.406250 0.156250
vt 0.125000 0.250000
vt 0.125000 0.281250
vt 0.000000 0.281250
vt 0.000000 0.250000
vt 0.218750 0.843750
vt 0.406250 0.843750
vt 0.406250 0.968750
vt 0.218750 0.968750
vt 1.010719 0.298731
vt 0.666969 0.298731
vt 0.666969 -0.013769
vt 1.010719 -0.013769
vt 0.218750 0.343750
vt 0.218750 0.312500
vt 0.406250 0.312500
vt 0.406250 0.343750
s off
f 21/19/1 22/20/1 18/21/1 17/22/1
f 22/23/2 23/24/2 19/25/2 18/26/2
f 23/27/3 24/28/3 20/29/3 19/30/3
f 24/31/4 21/32/4 17/33/4 20/34/4
f 17/35/5 18/36/5 19/37/5 20/38/5
f 24/39/6 23/40/6 22/41/6 21/42/6
g end_n
v -0.187500 0.000000 0.500100
v -0.187500 0.000000 0.437500
v 0.187500 0.000000 0.437500
v 0.187500 0.000000 0.500100
v -0.187500 0.250000 0.500100
v -0.187500 0.250000 0.437500
v 0.187500 0.250000 0.437500
v 0.187500 0.250000 0.500100
vt 0.500000 0.875000
vt 0.500000 0.843750
vt 0.625000 0.843750
vt 0.625000 0.875000
vt 0.001020 0.333333
vt 0.000000 0.001020
vt 0.332314 0.000000
vt 0.333333 0.332314
vt 0.125000 0.843750
vt 0.125000 0.875000
vt 0.000000 0.875000
vt 0.000000 0.843750
vt 0.218750 0.843750
vt 0.406250 0.843750
vt 0.406250 0.968750
vt 0.218750 0.968750
vt 0.997297 0.335167
vt 0.664984 0.336187
vt 0.663964 0.003873
vt 0.996278 0.002854
vt 0.218750 0.812500
vt 0.218750 0.781250
vt 0.406250 0.781250
vt 0.406250 0.812500
s off
f 29/43/1 30/44/1 26/45/1 25/46/1
f 30/47/2 31/48/2 27/49/2 26/50/2
f 31/51/3 32/52/3 28/53/3 27/54/3
f 32/55/4 29/56/4 25/57/4 28/58/4
f 25/59/5 26/60/5 27/61/5 28/62/5
f 32/63/6 31/64/6 30/65/6 29/66/6
g bus
v 0.375000 0.250000 -0.437500
v 0.375000 0.000000 -0.437500
v -0.375000 0.000000 -0.437500
v -0.375000 0.250000 -0.437500
v 0.375000 0.250000 0.437500
v 0.375000 0.000000 0.437500
v -0.375000 0.000000 0.437500
v -0.125000 0.000000 -0.250000
v -0.125000 0.000000 0.250000
v 0.125000 0.000000 -0.250000
v 0.125000 0.000000 0.250000
v -0.375000 0.250000 0.437500
v -0.125000 0.250000 -0.250000
v -0.125000 0.250000 0.250000
v 0.125000 0.250000 -0.250000
v 0.125000 0.250000 0.250000
v 0.000000 0.000000 -0.437500
v 0.000000 0.250000 -0.437500
v -0.375000 0.125000 -0.437500
v 0.375000 0.125000 -0.437500
v 0.000000 0.125000 -0.437500
v -0.000000 0.000000 0.437500
v -0.000000 0.250000 0.437500
v -0.375000 0.125000 0.437500
v 0.375000 0.125000 0.437500
v -0.000000 0.125000 0.437500
vt 0.562500 0.250000
vt 0.625000 0.250000
vt 0.625000 0.437500
vt 0.562500 0.437500
vt 0.000000 0.343750
vt 0.062500 0.343750
vt 0.125000 0.343750
vt 0.125000 0.781250
vt 0.062500 0.781250
vt 0.000000 0.781250
vt 0.062500 0.437500
vt 0.000000 0.437500
vt 0.000000 0.250000
vt 0.062500 0.250000
vt 0.625000 0.781250
vt 0.562500 0.781250
vt 0.500000 0.781250
vt 0.500000 0.343750
vt 0.562500 0.343750
vt 0.625000 0.343750
vt 0.250000 0.687500
vt 0.250000 0.437500
vt 0.312500 0.343750
vt 0.375000 0.437500
vt 0.375000 0.687500
vt 0.312500 0.781250
vt 0.250000 0.562500
vt 0.375000 0.562500
vt 0.500000 0.687500
vt 0.625000 0.687500
vt 0.500000 0.437500
vt 0.000000 0.687500
vt 0.125000 0.687500
vt 0.125000 0.437500
vt 0.500000 0.250000
vt 0.125000 0.875000
vt 0.062500 0.875000
vt 0.062500 0.687500
vt 0.000000 0.875000
vt 0.125000 0.250000
vn 0.000001 0.000000 -1.000000
vn 1.000000 0.000000 0.000001
vn -0.000001 0.000000 1.000000
vn -1.000000 0.000000 -0.000001
s off
f 53/67/7 49/68/7 35/69/7 51/70/7
f 34/71/8 52/72/8 33/73/8 37/74/8 57/75/8 38/76/8
f 58/77/9 54/78/9 38/79/9 57/80/9
f 39/81/10 56/82/10 44/83/10 36/84/10 51/85/10 35/86/10
f 42/87/5 34/74/5 38/73/5 43/88/5
f 38/73/5 54/89/5 39/84/5 41/90/5 43/88/5
f 40/91/5 35/83/5 49/92/5 34/74/5 42/87/5
f 39/84/5 35/83/5 40/91/5 41/90/5
f 37/74/6 33/73/6 47/88/6 48/87/6
f 46/91/6 44/83/6 55/92/6 37/74/6 48/87/6
f 33/73/6 50/89/6 36/84/6 45/90/6 47/88/6
f 45/90/6 36/84/6 44/83/6 46/91/6
f 42/93/9 47/88/9 45/90/9 40/94/9
f 47/95/10 42/96/10 43/69/10 48/97/10
f 48/91/7 43/94/7 41/93/7 46/87/7
f 40/98/8 45/99/8 46/100/8 41/78/8
f 50/101/7 53/67/7 51/70/7 36/97/7
f 33/102/7 52/103/7 53/104/7 50/99/7
f 52/103/7 34/105/7 49/98/7 53/104/7
f 55/100/9 58/77/9 57/80/9 37/106/9
f 44/101/9 56/67/9 58/70/9 55/97/9
f 56/67/9 39/68/9 54/69/9 58/70/9
g base
v -0.500000 0.000000 0.500000
v -0.500000 0.000000 -0.500000
v 0.500000 0.000000 -0.500000
v 0.500000 0.000000 0.500000
v -0.500000 0.125000 0.500000
v -0.500000 0.125000 -0.500000
v 0.500000 0.125000 -0.500000
v 0.500000 0.125000 0.500000
vt 0.000000 0.875000
vt 1.000000 0.875000
vt 1.000000 1.000000
vt 0.000000 1.000000
vt 0.000000 0.000000
vt 1.000000 0.000000
s off
f 63/107/1 64/108/1 60/109/1 59/110/1
f 64/107/2 65/108/2 61/109/2 60/110/2
f 65/107/3 66/108/3 62/109/3 61/110/3
f 66/107/4 63/108/4 59/109/4 62/110/4
f 59/111/5 60/112/5 61/109/5 62/110/5
f 66/111/6 65/112/6 64/109/6 63/110/6
