# Blender v2.67 (sub 0) OBJ File: 'chip.blend'
# www.blender.org
g light
v -0.079375 0.187500 0.079375
v -0.079375 0.187500 -0.079375
v 0.079375 0.187500 -0.079375
v 0.079375 0.187500 0.079375
v -0.079375 0.216250 0.079375
v -0.079375 0.216250 -0.079375
v 0.079375 0.216250 -0.079375
v 0.079375 0.216250 0.079375
vt 0.562500 1.000000
vt 0.562500 0.562500
vt 0.625000 0.562500
vt 0.625000 1.000000
vt 1.000000 1.000000
vt 1.000000 0.562500
vn -1.000000 0.000000 0.000000
vn 0.000000 0.000000 -1.000000
vn 1.000000 -0.000000 0.000000
vn 0.000000 -0.000000 1.000000
vn -0.000000 -1.000000 0.000000
vn -0.000000 1.000000 0.000000
s off
f 5/1/1 6/2/1 2/3/1 1/4/1
f 6/1/2 7/2/2 3/3/2 2/4/2
f 7/1/3 8/2/3 4/3/3 3/4/3
f 8/1/4 5/2/4 1/3/4 4/4/4
f 1/5/5 2/1/5 3/2/5 4/6/5
f 8/2/6 7/6/6 6/5/6 5/1/6
g base
v -0.109375 0.125000 0.109375
v -0.109375 0.125000 -0.109375
v 0.109375 0.125000 -0.109375
v 0.109375 0.125000 0.109375
v -0.109375 0.187500 0.109375
v -0.109375 0.187500 -0.109375
v 0.109375 0.187500 -0.109375
v 0.109375 0.187500 0.109375
vt 0.000000 0.875000
vt 0.562500 0.875000
vt 0.562500 1.000000
vt 0.000000 1.000000
vt 0.000000 0.437500
vt 0.562500 0.437500
vt 0.000000 0.441864
vt 0.553057 0.436785
vt 0.553057 0.994921
s off
f 13/7/1 14/8/1 10/9/1 9/10/1
f 14/7/2 15/8/2 11/9/2 10/10/2
f 15/7/3 16/8/3 12/9/3 11/10/3
f 16/7/4 13/8/4 9/9/4 12/10/4
f 9/11/5 10/12/5 11/9/5 12/10/5
f 16/13/6 15/14/6 14/15/6 13/10/6
