# Blender v2.67 (sub 0) OBJ File: 'chip.blend'
# www.blender.org
g chip
v -0.079375 0.187500 0.079375
v -0.079375 0.187500 -0.079375
v 0.079375 0.187500 -0.079375
v 0.079375 0.187500 0.079375
v -0.079375 0.216250 0.079375
v -0.079375 0.216250 -0.079375
v 0.079375 0.216250 -0.079375
v 0.079375 0.216250 0.079375
v -0.109375 0.125000 0.109375
v -0.109375 0.125000 -0.109375
v 0.109375 0.125000 -0.109375
v 0.109375 0.125000 0.109375
v -0.109375 0.187500 0.109375
v -0.109375 0.187500 -0.109375
v 0.109375 0.187500 -0.109375
v 0.109375 0.187500 0.109375
vt 0.562500 1.000000
vt 0.562500 0.562500
vt 0.625000 0.562500
vt 0.625000 1.000000
vt 1.000000 0.562500
vt 1.000000 1.000000
vt 0.000000 0.875000
vt 0.562500 0.875000
vt 0.000000 1.000000
vt 0.000000 0.437500
vt 0.562500 0.437500
vn -1.000000 0.000000 0.000000
vn 0.000000 0.000000 -1.000000
vn 1.000000 -0.000000 0.000000
vn 0.000000 -0.000000 1.000000
vn -0.000000 1.000000 0.000000
s off
f 5/1/1 6/2/1 2/3/1 1/4/1
f 6/1/2 7/2/2 3/3/2 2/4/2
f 7/1/3 8/2/3 4/3/3 3/4/3
f 8/1/4 5/2/4 1/3/4 4/4/4
f 8/5/5 7/6/5 6/1/5 5/2/5
f 13/7/1 14/8/1 10/1/1 9/9/1
f 14/7/2 15/8/2 11/1/2 10/9/2
f 15/7/3 16/8/3 12/1/3 11/9/3
f 16/7/4 13/8/4 9/1/4 12/9/4
f 16/10/5 15/11/5 14/1/5 13/9/5
