# Blender v2.67 (sub 0) OBJ File: 'pointer.blend'
# www.blender.org
g pointer
v -0.005000 0.300000 0.343750
v -0.062500 0.300000 -0.125000
v 0.062500 0.300000 -0.125000
v 0.005000 0.300000 0.343750
v -0.005000 0.370000 0.343750
v -0.062500 0.370000 -0.125000
v 0.062500 0.370000 -0.125000
v 0.005000 0.370000 0.343750
v -0.147273 0.370000 0.000000
v -0.147273 0.300000 0.000000
v 0.147273 0.370000 0.000000
v 0.147273 0.300000 0.000000
vt 0.687500 0.375000
vt 0.687500 0.125000
vt 0.812500 0.125000
vt 0.812500 0.375000
vt 0.625000 0.687500
vt 0.625000 0.000000
vt 0.750000 0.000000
vt 0.750000 0.687500
vt 0.250000 0.250000
vt 0.250000 0.187500
vt 0.375000 0.187500
vt 0.375000 0.250000
vt 0.250000 0.375000
vt 0.625000 0.187500
vt 0.750000 0.375000
vt 0.500000 1.000000
vn -0.827624 0.000000 -0.561283
vn 0.000000 0.000000 -1.000000
vn 0.923987 0.000000 0.382425
vn 0.000000 -0.000000 1.000000
vn -0.000000 -1.000000 0.000000
vn -0.000000 1.000000 0.000000
vn -0.923987 0.000000 0.382425
vn 0.827624 0.000000 -0.561283
s off
f 9/1/1 6/2/1 2/3/1 10/4/1
f 6/2/2 7/1/2 3/4/2 2/3/2
f 11/5/3 8/6/3 4/7/3 12/8/3
f 8/9/4 5/10/4 1/11/4 4/12/4
f 10/13/5 2/11/5 3/14/5 12/15/5
f 11/13/6 7/11/6 6/14/6 9/15/6
f 5/5/7 9/6/7 10/7/7 1/8/7
f 7/1/8 11/2/8 12/3/8 3/4/8
f 1/16/5 10/13/5 12/15/5 4/16/5
f 8/16/6 11/13/6 9/15/6 5/16/6
