# Blender v2.67 (sub 0) OBJ File: 'serialbus.blend'
# www.blender.org
g base
v 0.212500 0.000000 0.300010
v 0.212500 0.000000 0.500010
v -0.212499 0.000000 0.500010
v -0.212500 0.000000 0.300010
v 0.212500 0.175000 0.300010
v 0.212500 0.312500 0.500010
v -0.212499 0.312500 0.500010
v -0.212500 0.175000 0.300010
vt 0.750000 0.656250
vt 0.562500 0.781250
vt 0.562500 0.500000
vt 0.750000 0.500000
vt 0.312500 1.000000
vt 0.312500 0.500000
vt 0.500000 0.500000
vt 0.500000 1.000000
vt 0.750000 0.812500
vt 0.562500 0.687500
vt 0.125000 1.000000
vt 0.125000 0.500000
vt 0.281250 0.500000
vt 0.281250 1.000000
vt 1.000000 0.625000
vt 0.781250 0.625000
vt 0.781250 0.000000
vt 1.000000 0.000000
vn 1.000000 0.000000 -0.000002
vn 0.000002 0.000000 1.000000
vn -1.000000 0.000000 0.000002
vn -0.000001 0.000000 -1.000000
vn 0.000000 -1.000000 0.000000
vn -0.000001 0.824042 -0.566529
s off
f 5/1/1 6/2/1 2/3/1 1/4/1
f 6/5/2 7/6/2 3/7/2 2/8/2
f 7/9/3 8/10/3 4/3/3 3/4/3
f 8/11/4 5/12/4 1/13/4 4/14/4
f 1/15/5 2/16/5 3/17/5 4/18/5
f 8/14/6 7/11/6 6/12/6 5/13/6
