# Blender v2.67 (sub 0) OBJ File: 'wire.blend'
# www.blender.org
g wire
v -0.031250 0.125000 0.031250
v -0.031250 0.125000 -0.031250
v 0.031250 0.125000 -0.031250
v 0.031250 0.125000 0.031250
v -0.031250 0.145000 0.031250
v -0.031250 0.145000 -0.031250
v 0.031250 0.145000 -0.031250
v 0.031250 0.145000 0.031250
vt 0.000000 0.250000
vt 0.250000 0.250000
vt 0.250000 0.000000
vt 0.000000 0.000000
vt 0.250000 0.500000
vt 0.500000 0.500000
vt 0.500000 0.750000
vt 0.250000 0.750000
vn -1.000000 0.000000 0.000000
vn 0.000000 0.000000 -1.000000
vn 1.000000 -0.000000 0.000000
vn 0.000000 -0.000000 1.000000
vn -0.000000 -1.000000 0.000000
vn -0.000000 1.000000 0.000000
s off
f 5/1/1 6/2/1 2/3/1 1/4/1
f 6/1/2 7/2/2 3/3/2 2/4/2
f 7/1/3 8/2/3 4/3/3 3/4/3
f 8/1/4 5/2/4 1/3/4 4/4/4
f 1/5/5 2/6/5 3/7/5 4/8/5
f 8/5/6 7/6/6 6/7/6 5/8/6
g border
v -0.093750 0.125000 0.093750
v -0.093750 0.125000 -0.093750
v 0.093750 0.125000 -0.093750
v 0.093750 0.125000 0.093750
v -0.093750 0.135000 0.093750
v -0.093750 0.135000 -0.093750
v 0.093750 0.135000 -0.093750
v 0.093750 0.135000 0.093750
vt 0.750000 0.500000
vt 0.750000 0.250000
vt 1.000000 0.250000
vt 1.000000 0.500000
vt 0.000000 0.250000
vt 0.750000 1.000000
vt 0.000000 1.000000
s off
f 13/9/1 14/10/1 10/11/1 9/12/1
f 14/9/2 15/10/2 11/11/2 10/12/2
f 15/9/3 16/10/3 12/11/3 11/12/3
f 16/9/4 13/10/4 9/11/4 12/12/4
f 9/13/5 10/10/5 11/14/5 12/15/5
f 16/13/6 15/10/6 14/14/6 13/15/6
