# Blender v2.67 (sub 0) OBJ File: 'leveron.blend'
# www.blender.org
g leveron
v 0.062500 0.011491 -0.116627
v 0.062500 0.073991 -0.008373
v -0.062500 0.073991 -0.008373
v -0.062500 0.011491 -0.116626
v 0.062500 0.336250 -0.304127
v 0.062500 0.398750 -0.195873
v -0.062500 0.398750 -0.195873
v -0.062500 0.336250 -0.304127
vt 0.937500 0.625000
vt 0.812500 0.625000
vt 0.812500 0.250000
vt 0.937500 0.250000
vt 0.812500 0.500000
vt 0.937500 0.500000
vn 1.000000 0.000000 -0.000001
vn 0.000001 0.500000 0.866025
vn -1.000000 0.000000 0.000001
vn -0.000001 -0.500000 -0.866025
vn -0.000001 0.866025 -0.500000
s off
f 5/1/1 6/2/1 2/3/1 1/4/1
f 6/1/2 7/2/2 3/3/2 2/4/2
f 7/1/3 8/2/3 4/3/3 3/4/3
f 8/1/4 5/2/4 1/3/4 4/4/4
f 8/5/5 7/6/5 6/1/5 5/2/5
g base
v -0.125000 0.000000 0.250000
v -0.125000 0.000000 -0.250000
v 0.125000 0.000000 -0.250000
v 0.125000 0.000000 0.250000
v -0.125000 0.125000 0.250000
v -0.125000 0.125000 -0.250000
v 0.125000 0.125000 -0.250000
v 0.125000 0.125000 0.250000
vt 0.000000 0.875000
vt 0.500000 0.875000
vt 0.500000 1.000000
vt 0.000000 1.000000
vt 0.062500 0.875000
vt 0.312500 0.875000
vt 0.312500 1.000000
vt 0.062500 1.000000
vt 0.000000 0.687500
vt 0.500000 0.687500
vt 0.500000 0.937500
vt 0.000000 0.937500
vn -1.000000 0.000000 0.000000
vn 0.000000 0.000000 -1.000000
vn 1.000000 -0.000000 0.000000
vn 0.000000 -0.000000 1.000000
vn -0.000000 1.000000 0.000000
s off
f 13/7/6 14/8/6 10/9/6 9/10/6
f 14/11/7 15/12/7 11/13/7 10/14/7
f 15/7/8 16/8/8 12/9/8 11/10/8
f 16/11/9 13/12/9 9/13/9 12/14/9
f 16/15/10 15/16/10 14/17/10 13/18/10
