# Blender v2.67 (sub 0) OBJ File: 'lever.blend'
# www.blender.org
g leveron
v -0.062500 -0.031255 0.054124
v -0.062500 0.031255 -0.054124
v 0.062500 0.031255 -0.054124
v 0.062500 -0.031255 0.054124
v -0.062500 0.401737 0.304161
v -0.062500 0.464246 0.195913
v 0.062500 0.464246 0.195913
v 0.062500 0.401737 0.304161
vt 0.937500 0.625000
vt 0.812500 0.625000
vt 0.812500 0.000000
vt 0.937500 0.000000
vt 0.812500 0.500000
vt 0.937500 0.500000
vn -1.000000 0.000000 0.000000
vn 0.000000 0.500074 -0.865983
vn 1.000000 0.000000 0.000000
vn 0.000000 -0.500074 0.865983
vn 0.000000 -0.865983 -0.500074
vn 0.000000 0.865983 0.500074
s off
f 5/1/1 6/2/1 2/3/1 1/4/1
f 6/1/2 7/2/2 3/3/2 2/4/2
f 7/1/3 8/2/3 4/3/3 3/4/3
f 8/1/4 5/2/4 1/3/4 4/4/4
f 1/5/5 2/6/5 3/1/5 4/2/5
f 8/5/6 7/6/6 6/1/6 5/2/6
g leveroff
v -0.062500 0.031253 0.054125
v -0.062500 -0.031253 -0.054125
v 0.062500 -0.031253 -0.054125
v 0.062500 0.031253 0.054125
v -0.062500 0.464252 -0.195898
v -0.062500 0.401747 -0.304148
v 0.062500 0.401747 -0.304148
v 0.062500 0.464252 -0.195898
vt 0.937500 0.625000
vt 0.812500 0.625000
vt 0.812500 0.000000
vt 0.937500 0.000000
vt 0.812500 0.500000
vt 0.937500 0.500000
vn 0.000000 -0.500045 -0.865999
vn 0.000000 0.500045 0.865999
vn 0.000000 -0.865999 0.500045
vn 0.000000 0.865999 -0.500045
s off
f 13/7/1 14/8/1 10/9/1 9/10/1
f 14/7/7 15/8/7 11/9/7 10/10/7
f 15/7/3 16/8/3 12/9/3 11/10/3
f 16/7/8 13/8/8 9/9/8 12/10/8
f 9/11/9 10/12/9 11/7/9 12/8/9
f 16/11/10 15/12/10 14/7/10 13/8/10
g base
v -0.187500 0.000000 0.250000
v -0.187500 0.000000 -0.250000
v 0.187500 0.000000 -0.250000
v 0.187500 0.000000 0.250000
v -0.187500 0.125000 0.250000
v -0.187500 0.125000 -0.250000
v 0.187500 0.125000 -0.250000
v 0.187500 0.125000 0.250000
vt 0.000000 0.875000
vt 0.500000 0.875000
vt 0.500000 1.000000
vt 0.000000 1.000000
vt 0.375000 0.875000
vt 0.375000 1.000000
vt 0.000000 0.625000
vt 0.500000 0.625000
vn 0.000000 0.000000 -1.000000
vn 0.000000 -0.000000 1.000000
vn -0.000000 -1.000000 0.000000
vn -0.000000 1.000000 0.000000
s off
f 21/13/1 22/14/1 18/15/1 17/16/1
f 22/13/11 23/17/11 19/18/11 18/16/11
f 23/13/3 24/14/3 20/15/3 19/16/3
f 24/13/12 21/17/12 17/18/12 20/16/12
f 17/19/13 18/20/13 19/15/13 20/16/13
f 24/19/14 23/20/14 22/15/14 21/16/14
