# Blender v2.67 (sub 0) OBJ File: 'torch.blend'
# www.blender.org
g glow
v -0.046875 0.328125 0.046875
v -0.046875 0.328125 -0.046875
v 0.046875 0.328125 -0.046875
v 0.046875 0.328125 0.046875
v -0.093750 0.515625 0.093750
v -0.093750 0.515625 -0.093750
v 0.093750 0.515625 -0.093750
v 0.093750 0.515625 0.093750
v -0.093750 0.328125 -0.093750
v -0.093750 0.328125 0.093750
v 0.093750 0.328125 -0.093750
v 0.093750 0.328125 0.093750
vt 0.579952 0.000000
vt 0.704952 0.000000
vt 0.704952 0.500000
vt 0.579952 0.500000
vt 0.704952 0.125000
vt 0.579952 0.125000
vt 0.704952 0.625000
vt 0.579952 0.625000
vn 0.000001 -1.000000 0.000000
vn 0.000000 -1.000000 0.000001
vn -0.000001 -1.000000 0.000000
vn 0.000000 -1.000000 -0.000001
vn -0.000000 -1.000000 0.000000
vn -0.000000 1.000000 0.000000
vn -1.000000 0.000000 0.000000
vn 0.000000 0.000000 -1.000000
vn 1.000000 -0.000000 0.000000
vn 0.000000 -0.000000 1.000000
s off
f 10/1/1 9/2/1 2/3/1 1/4/1
f 9/3/2 11/4/2 3/1/2 2/2/2
f 11/1/3 12/2/3 4/3/3 3/4/3
f 12/3/4 10/4/4 1/1/4 4/2/4
f 1/1/5 2/2/5 3/5/5 4/6/5
f 8/4/6 7/3/6 6/7/6 5/8/6
f 5/4/7 6/3/7 9/7/7 10/8/7
f 6/4/8 7/3/8 11/7/8 9/8/8
f 7/4/9 8/3/9 12/7/9 11/8/9
f 8/4/10 5/3/10 10/7/10 12/8/10
g torch
v -0.046875 0.000000 0.046875
v -0.046875 0.000000 -0.046875
v 0.046875 0.000000 -0.046875
v 0.046875 0.000000 0.046875
v -0.046875 0.468750 0.046875
v -0.046875 0.468750 -0.046875
v 0.046875 0.468750 -0.046875
v 0.046875 0.468750 0.046875
v -0.046875 0.375000 -0.046875
v -0.046875 0.375000 0.046875
v 0.046875 0.375000 -0.046875
v 0.046875 0.375000 0.046875
vt 0.437500 0.000000
vt 0.562500 0.000000
vt 0.562500 0.500000
vt 0.437500 0.500000
vt 0.562500 0.125000
vt 0.437500 0.125000
vt 0.562500 0.625000
vt 0.437500 0.625000
s off
f 22/9/7 21/10/7 14/11/7 13/12/7
f 21/11/8 23/12/8 15/9/8 14/10/8
f 23/9/9 24/10/9 16/11/9 15/12/9
f 24/11/10 22/12/10 13/9/10 16/10/10
f 13/9/5 14/10/5 15/13/5 16/14/5
f 20/12/6 19/11/6 18/15/6 17/16/6
f 17/12/7 18/11/7 21/15/7 22/16/7
f 18/12/8 19/11/8 23/15/8 21/16/8
f 19/12/9 20/11/9 24/15/9 23/16/9
f 20/12/10 17/11/10 22/15/10 24/16/10
