# Blender v2.67 (sub 0) OBJ File: 'torch.blend'
# www.blender.org
g glow
v -0.062500 0.437500 0.062500
v -0.062500 0.437500 -0.062500
v 0.062500 0.437500 -0.062500
v 0.062500 0.437500 0.062500
v -0.125000 0.687500 0.125000
v -0.125000 0.687500 -0.125000
v 0.125000 0.687500 -0.125000
v 0.125000 0.687500 0.125000
v -0.125000 0.437500 -0.125000
v -0.125000 0.437500 0.125000
v 0.125000 0.437500 -0.125000
v 0.125000 0.437500 0.125000
vt 0.579952 0.000000
vt 0.704952 0.000000
vt 0.704952 0.500000
vt 0.579952 0.500000
vt 0.704952 0.125000
vt 0.579952 0.125000
vt 0.704952 0.625000
vt 0.579952 0.625000
vn 0.000000 -1.000000 0.000000
vn -0.000000 1.000000 0.000000
vn -1.000000 0.000000 0.000000
vn 0.000000 0.000000 -1.000000
vn 1.000000 -0.000000 0.000000
vn 0.000000 -0.000000 1.000000
s off
f 10/1/1 9/2/1 2/3/1 1/4/1
f 9/3/1 11/4/1 3/1/1 2/2/1
f 11/1/1 12/2/1 4/3/1 3/4/1
f 12/3/1 10/4/1 1/1/1 4/2/1
f 1/1/1 2/2/1 3/5/1 4/6/1
f 8/4/2 7/3/2 6/7/2 5/8/2
f 5/4/3 6/3/3 9/7/3 10/8/3
f 6/4/4 7/3/4 11/7/4 9/8/4
f 7/4/5 8/3/5 12/7/5 11/8/5
f 8/4/6 5/3/6 10/7/6 12/8/6
g torch
v -0.062500 0.000000 0.062500
v -0.062500 0.000000 -0.062500
v 0.062500 0.000000 -0.062500
v 0.062500 0.000000 0.062500
v -0.062500 0.625000 0.062500
v -0.062500 0.625000 -0.062500
v 0.062500 0.625000 -0.062500
v 0.062500 0.625000 0.062500
v -0.062500 0.500000 -0.062500
v -0.062500 0.500000 0.062500
v 0.062500 0.500000 -0.062500
v 0.062500 0.500000 0.062500
vt 0.437500 0.000000
vt 0.562500 0.000000
vt 0.562500 0.500000
vt 0.437500 0.500000
vt 0.562500 0.125000
vt 0.437500 0.125000
vt 0.562500 0.625000
vt 0.437500 0.625000
s off
f 22/9/3 21/10/3 14/11/3 13/12/3
f 21/11/4 23/12/4 15/9/4 14/10/4
f 23/9/5 24/10/5 16/11/5 15/12/5
f 24/11/6 22/12/6 13/9/6 16/10/6
f 13/9/1 14/10/1 15/13/1 16/14/1
f 20/12/2 19/11/2 18/15/2 17/16/2
f 17/12/3 18/11/3 21/15/3 22/16/3
f 18/12/4 19/11/4 23/15/4 21/16/4
f 19/12/5 20/11/5 24/15/5 23/16/5
f 20/12/6 17/11/6 22/15/6 24/16/6
