# Blender v2.67 (sub 0) OBJ File: 'torch.blend'
# www.blender.org
g glow
v -0.046875 0.328125 0.046875
v -0.046875 0.328125 -0.046875
v 0.046875 0.328125 -0.046875
v 0.046875 0.328125 0.046875
v -0.093750 0.515625 0.093750
v -0.093750 0.515625 -0.093750
v 0.093750 0.515625 -0.093750
v 0.093750 0.515625 0.093750
v -0.093750 0.328125 -0.093750
v -0.093750 0.328125 0.093750
v 0.093750 0.328125 -0.093750
v 0.093750 0.328125 0.093750
vt 0.437500 0.500000
vt 0.562500 0.500000
vt 0.562500 0.625000
vt 0.437500 0.625000
vn 0.000001 -1.000000 0.000000
vn 0.000000 -1.000000 0.000001
vn -0.000001 -1.000000 0.000000
vn 0.000000 -1.000000 -0.000001
vn -0.000000 -1.000000 0.000000
vn -0.000000 1.000000 0.000000
vn -1.000000 0.000000 0.000000
vn 0.000000 0.000000 -1.000000
vn 1.000000 -0.000000 0.000000
vn 0.000000 -0.000000 1.000000
s off
f 10/1/1 9/2/1 2/3/1 1/4/1
f 9/3/2 11/4/2 3/1/2 2/3/2
f 11/1/3 12/2/3 4/3/3 3/4/3
f 12/2/4 10/1/4 1/1/4 4/2/4
f 1/1/5 2/3/5 3/3/5 4/4/5
f 8/1/6 7/2/6 6/3/6 5/4/6
f 5/1/7 6/2/7 9/3/7 10/4/7
f 6/1/8 7/2/8 11/3/8 9/4/8
f 7/1/9 8/2/9 12/3/9 11/4/9
f 8/1/10 5/2/10 10/3/10 12/4/10
g torch
v -0.046875 0.000000 0.046875
v -0.046875 0.000000 -0.046875
v 0.046875 0.000000 -0.046875
v 0.046875 0.000000 0.046875
v -0.046875 0.468750 0.046875
v -0.046875 0.468750 -0.046875
v 0.046875 0.468750 -0.046875
v 0.046875 0.468750 0.046875
v -0.046875 0.375000 -0.046875
v -0.046875 0.375000 0.046875
v 0.046875 0.375000 -0.046875
v 0.046875 0.375000 0.046875
vt 0.437500 0.000000
vt 0.562500 0.000000
vt 0.562500 0.500000
vt 0.437500 0.500000
vt 0.562500 0.125000
vt 0.437500 0.125000
vt 0.562500 0.625000
vt 0.437500 0.625000
s off
f 22/5/7 21/6/7 14/7/7 13/8/7
f 21/7/8 23/8/8 15/5/8 14/6/8
f 23/5/9 24/6/9 16/7/9 15/8/9
f 24/7/10 22/8/10 13/5/10 16/6/10
f 13/5/5 14/6/5 15/9/5 16/10/5
f 20/8/6 19/7/6 18/11/6 17/12/6
f 17/8/7 18/7/7 21/11/7 22/12/7
f 18/8/8 19/7/8 23/11/8 21/12/8
f 19/8/9 20/7/9 24/11/9 23/12/9
f 20/8/10 17/7/10 22/11/10 24/12/10
