# Blender v2.67 (sub 0) OBJ File: 'presser.blend'
# www.blender.org
g shaft
v -0.062500 0.287500 0.062500
v -0.062500 0.287500 -0.062500
v 0.062500 0.287500 -0.062500
v 0.062500 0.287500 0.062500
v -0.062500 1.062500 0.062500
v -0.062500 1.062500 -0.062500
v 0.062500 1.062500 -0.062500
v 0.062500 1.062500 0.062500
vt 0.765625 0.484375
vt 0.796875 0.484375
vt 0.796875 0.703125
vt 0.765625 0.703125
vt 0.718750 0.484375
vt 0.750000 0.484375
vt 0.750000 0.703125
vt 0.718750 0.703125
vt 0.671875 0.484375
vt 0.703125 0.484375
vt 0.703125 0.703125
vt 0.671875 0.703125
vt 0.625000 0.484375
vt 0.656250 0.484375
vt 0.656250 0.703125
vt 0.625000 0.703125
vt 0.625000 0.671875
vt 0.656250 0.671875
vn -1.000000 0.000000 0.000000
vn 0.000000 0.000000 -1.000000
vn 1.000000 -0.000000 0.000000
vn 0.000000 -0.000000 1.000000
vn -0.000000 -1.000000 0.000000
vn -0.000000 1.000000 0.000000
s off
f 5/1/1 6/2/1 2/3/1 1/4/1
f 6/5/2 7/6/2 3/7/2 2/8/2
f 7/9/3 8/10/3 4/11/3 3/12/3
f 8/13/4 5/14/4 1/15/4 4/16/4
f 1/13/5 2/14/5 3/15/5 4/16/5
f 8/17/6 7/18/6 6/15/6 5/16/6
g base
v -0.500000 0.350000 -0.500000
v -0.500000 0.000000 -0.500000
v -0.500000 0.000000 0.500000
v -0.500000 0.350000 0.500000
v 0.500000 0.350000 -0.500000
v 0.500000 0.000000 -0.500000
v 0.500000 0.000000 0.500000
v 0.500000 0.350000 0.500000
v -0.500000 0.750000 -0.500000
v -0.500000 0.750000 0.500000
v -0.500000 1.000000 0.500000
v -0.500000 1.000000 -0.500000
v 0.500000 0.750000 0.500000
v 0.500000 1.000000 0.500000
v 0.500000 1.000000 -0.500000
v 0.500000 0.750000 -0.500000
vt 0.312500 0.625000
vt 0.562500 0.625000
vt 0.562500 0.718750
vt 0.312500 0.718750
vt 0.312500 0.562500
vt 0.312500 0.468750
vt 0.562500 0.468750
vt 0.562500 0.562500
vt 0.000000 0.000000
vt 1.000000 0.000000
vt 1.000000 1.000000
vt 0.000000 1.000000
vt 0.312500 0.750000
vt 0.562500 0.750000
vt 0.562500 1.000000
vt 0.312500 1.000000
vt 0.312500 0.437500
vt 0.562500 0.437500
vt 0.562500 0.187500
vt 0.312500 0.187500
s off
f 19/19/1 20/20/1 17/21/1 18/22/1
f 9/23/1 10/24/1 11/25/1 12/26/1
f 23/22/2 24/19/2 17/20/2 20/21/2
f 9/26/2 13/23/2 14/24/2 10/25/2
f 22/22/3 21/19/3 24/20/3 23/21/3
f 15/24/3 14/25/3 13/26/3 16/23/3
f 22/19/4 19/20/4 18/21/4 21/22/4
f 15/25/4 16/26/4 12/23/4 11/24/4
f 10/27/5 14/28/5 15/29/5 11/30/5
f 23/31/6 20/32/6 19/33/6 22/34/6
f 9/35/6 12/36/6 16/37/6 13/38/6
f 21/38/5 18/35/5 17/36/5 24/37/5
g plate
v -0.375000 0.287500 0.375000
v -0.375000 0.287500 -0.375000
v 0.375000 0.287500 -0.375000
v 0.375000 0.287500 0.375000
v -0.375000 0.475000 0.375000
v -0.375000 0.475000 -0.375000
v 0.375000 0.475000 -0.375000
v 0.375000 0.475000 0.375000
vt 0.359375 0.234375
vt 0.515625 0.234375
vt 0.515625 0.390625
vt 0.359375 0.390625
s off
f 29/39/1 30/40/1 26/41/1 25/42/1
f 30/39/2 31/40/2 27/41/2 26/42/2
f 31/39/3 32/40/3 28/41/3 27/42/3
f 32/39/4 29/40/4 25/41/4 28/42/4
f 25/39/5 26/40/5 27/41/5 28/42/5
f 32/39/6 31/40/6 30/41/6 29/42/6
