# Blender v2.67 (sub 0) OBJ File: 'alloywire.blend'
# www.blender.org
g inin_N
v -0.062500 0.000000 0.500000
v -0.062500 0.000000 0.250000
v 0.062500 0.000000 0.250000
v 0.062500 0.000000 0.500000
v -0.062500 0.125000 0.500000
v -0.062500 0.125000 0.250000
v 0.062500 0.125000 0.250000
v 0.062500 0.125000 0.500000
v -0.062500 0.125000 0.375000
v -0.062500 0.000000 0.375000
v 0.062500 0.125000 0.375000
v 0.062500 0.000000 0.375000
vt 0.062500 0.937500
vt 0.062500 0.875000
vt 0.000000 0.875000
vt 0.000000 0.937500
vt 0.218750 0.062500
vt 0.281250 0.062500
vt 0.281250 0.000000
vt 0.218750 0.000000
vt 0.437500 0.437500
vt 0.437500 0.500000
vt 0.500000 0.500000
vt 0.500000 0.437500
vt 0.218750 0.562500
vt 0.281250 0.562500
vt 0.281250 0.500000
vt 0.218750 0.500000
vt 0.218750 0.937500
vt 0.218750 0.875000
vt 0.281250 0.875000
vt 0.281250 0.937500
vt 0.062500 0.500000
vt 0.062500 0.437500
vt 0.000000 0.437500
vt 0.000000 0.500000
vt 0.437500 0.875000
vt 0.437500 0.937500
vt 0.500000 0.937500
vt 0.500000 0.875000
vt 0.218750 1.000000
vt 0.281250 1.000000
vn -1.000000 0.000000 0.000000
vn 0.000000 0.000000 -1.000000
vn 1.000000 -0.000000 0.000000
vn 0.000000 -0.000000 1.000000
vn -0.000000 -1.000000 0.000000
vn -0.000000 1.000000 0.000000
s off
f 9/1/1 6/2/1 2/3/1 10/4/1
f 6/5/2 7/6/2 3/7/2 2/8/2
f 11/9/3 8/10/3 4/11/3 12/12/3
f 8/13/4 5/14/4 1/15/4 4/16/4
f 10/17/5 2/18/5 3/19/5 12/20/5
f 11/20/6 7/19/6 6/18/6 9/17/6
f 5/21/1 9/22/1 10/23/1 1/24/1
f 7/25/3 11/26/3 12/27/3 3/28/3
f 1/29/5 10/17/5 12/20/5 4/30/5
f 8/8/6 11/5/6 9/6/6 5/7/6
g inin_P
v -0.062500 0.000000 -0.250000
v -0.062500 0.000000 -0.500000
v 0.062500 0.000000 -0.500000
v 0.062500 0.000000 -0.250000
v -0.062500 0.125000 -0.250000
v -0.062500 0.125000 -0.500000
v 0.062500 0.125000 -0.500000
v 0.062500 0.125000 -0.250000
v -0.062500 0.125000 -0.375000
v -0.062500 0.000000 -0.375000
v 0.062500 0.125000 -0.375000
v 0.062500 0.000000 -0.375000
vt 0.062500 0.437500
vt 0.000000 0.437500
vt 0.000000 0.500000
vt 0.062500 0.500000
vt 0.218750 1.000000
vt 0.281250 1.000000
vt 0.281250 0.937500
vt 0.218750 0.937500
vt 0.437500 0.562500
vt 0.437500 0.625000
vt 0.500000 0.625000
vt 0.500000 0.562500
vt 0.218750 0.062500
vt 0.281250 0.062500
vt 0.281250 0.000000
vt 0.218750 0.000000
vt 0.218750 0.562500
vt 0.218750 0.500000
vt 0.281250 0.500000
vt 0.281250 0.562500
vt 0.062500 0.625000
vt 0.062500 0.562500
vt 0.000000 0.562500
vt 0.000000 0.625000
vt 0.500000 0.437500
vt 0.437500 0.437500
vt 0.437500 0.500000
vt 0.500000 0.500000
vt 0.218750 0.625000
vt 0.281250 0.625000
s off
f 21/31/1 18/32/1 14/33/1 22/34/1
f 18/35/2 19/36/2 15/37/2 14/38/2
f 23/39/3 20/40/3 16/41/3 24/42/3
f 20/43/4 17/44/4 13/45/4 16/46/4
f 22/47/5 14/48/5 15/49/5 24/50/5
f 23/44/6 19/45/6 18/46/6 21/43/6
f 17/51/1 21/52/1 22/53/1 13/54/1
f 19/55/3 23/56/3 24/57/3 15/58/3
f 13/59/5 22/47/5 24/50/5 16/60/5
f 20/60/6 23/50/6 21/47/6 17/59/6
g outsideconnector_P
v -0.062500 0.000000 -0.500000
v -0.062500 0.000000 -0.625000
v 0.062500 0.000000 -0.625000
v 0.062500 0.000000 -0.500000
v -0.062500 0.125000 -0.500000
v -0.062500 0.125000 -0.625000
v 0.062500 0.125000 -0.625000
v 0.062500 0.125000 -0.500000
vt 0.500000 0.062500
vt 0.437500 0.062500
vt 0.437500 0.000000
vt 0.500000 0.000000
vt 0.218750 0.937500
vt 0.281250 0.937500
vt 0.281250 0.875000
vt 0.218750 0.875000
vt 0.062500 0.062500
vt 0.000000 0.062500
vt 0.000000 0.000000
vt 0.062500 0.000000
vt 0.281250 0.062500
vt 0.218750 0.062500
vt 0.218750 0.000000
vt 0.281250 0.000000
vt 0.218750 0.281250
vt 0.218750 0.218750
vt 0.281250 0.218750
vt 0.281250 0.281250
vt 0.281250 1.000000
vt 0.218750 1.000000
s off
f 29/61/1 30/62/1 26/63/1 25/64/1
f 30/65/2 31/66/2 27/67/2 26/68/2
f 31/69/3 32/70/3 28/71/3 27/72/3
f 32/73/4 29/74/4 25/75/4 28/76/4
f 25/77/5 26/78/5 27/79/5 28/80/5
f 32/81/6 31/66/6 30/65/6 29/82/6
g outsideconnector_N
v -0.062500 0.000000 0.625000
v -0.062500 0.000000 0.500000
v 0.062500 0.000000 0.500000
v 0.062500 0.000000 0.625000
v -0.062500 0.125000 0.625000
v -0.062500 0.125000 0.500000
v 0.062500 0.125000 0.500000
v 0.062500 0.125000 0.625000
vt 0.437500 0.062500
vt 0.437500 0.000000
vt 0.500000 0.000000
vt 0.500000 0.062500
vt 0.218750 0.062500
vt 0.281250 0.062500
vt 0.281250 0.000000
vt 0.218750 0.000000
vt 0.062500 0.000000
vt 0.062500 0.062500
vt 0.000000 0.062500
vt 0.000000 0.000000
vt 0.281250 0.625000
vt 0.218750 0.625000
vt 0.218750 0.562500
vt 0.281250 0.562500
vt 0.218750 0.281250
vt 0.218750 0.218750
vt 0.281250 0.218750
vt 0.281250 0.281250
vt 0.281250 0.500000
vt 0.218750 0.500000
s off
f 37/83/1 38/84/1 34/85/1 33/86/1
f 38/87/2 39/88/2 35/89/2 34/90/2
f 39/91/3 40/92/3 36/93/3 35/94/3
f 40/95/4 37/96/4 33/97/4 36/98/4
f 33/99/5 34/100/5 35/101/5 36/102/5
f 40/98/6 39/103/6 38/104/6 37/97/6
g inout_N
v -0.062500 0.000000 0.500000
v -0.062500 0.000000 0.250000
v 0.062500 0.000000 0.250000
v 0.062500 0.000000 0.500000
v -0.062500 0.125000 0.500000
v -0.062500 0.125000 0.250000
v 0.062500 0.125000 0.250000
v 0.062500 0.125000 0.500000
vt 0.062500 1.000000
vt 0.062500 0.875000
vt 0.000000 0.875000
vt 0.000000 1.000000
vt 0.218750 0.062500
vt 0.281250 0.062500
vt 0.281250 0.000000
vt 0.218750 0.000000
vt 0.437500 0.875000
vt 0.437500 1.000000
vt 0.500000 1.000000
vt 0.500000 0.875000
vt 0.218750 1.000000
vt 0.218750 0.875000
vt 0.281250 0.875000
vt 0.281250 1.000000
s off
f 45/105/1 46/106/1 42/107/1 41/108/1
f 46/109/2 47/110/2 43/111/2 42/112/2
f 47/113/3 48/114/3 44/115/3 43/116/3
f 48/109/4 45/110/4 41/111/4 44/112/4
f 41/117/5 42/118/5 43/119/5 44/120/5
f 48/120/6 47/119/6 46/118/6 45/117/6
g inout_P
v -0.062500 0.000000 -0.250000
v -0.062500 0.000000 -0.500000
v 0.062500 0.000000 -0.500000
v 0.062500 0.000000 -0.250000
v -0.062500 0.125000 -0.250000
v -0.062500 0.125000 -0.500000
v 0.062500 0.125000 -0.500000
v 0.062500 0.125000 -0.250000
vt 0.062500 0.625000
vt 0.062500 0.500000
vt 0.000000 0.500000
vt 0.000000 0.625000
vt 0.218750 0.062500
vt 0.281250 0.062500
vt 0.281250 0.000000
vt 0.218750 0.000000
vt 0.437500 0.500000
vt 0.437500 0.625000
vt 0.500000 0.625000
vt 0.500000 0.500000
vt 0.218750 0.625000
vt 0.218750 0.500000
vt 0.281250 0.500000
vt 0.281250 0.625000
s off
f 53/121/1 54/122/1 50/123/1 49/124/1
f 54/125/2 55/126/2 51/127/2 50/128/2
f 55/129/3 56/130/3 52/131/3 51/132/3
f 56/125/4 53/126/4 49/127/4 52/128/4
f 49/133/5 50/134/5 51/135/5 52/136/5
f 56/136/6 55/135/6 54/134/6 53/133/6
g insideconnector_N
v -0.062500 0.000000 0.250000
v -0.062500 0.000000 0.062500
v 0.062500 0.000000 0.062500
v 0.062500 0.000000 0.250000
v -0.062500 0.125000 0.250000
v -0.062500 0.125000 0.062500
v 0.062500 0.125000 0.062500
v 0.062500 0.125000 0.250000
vt 0.062500 0.875000
vt 0.062500 0.781250
vt 0.000000 0.781250
vt 0.000000 0.875000
vt 0.218750 0.062500
vt 0.281250 0.062500
vt 0.281250 0.000000
vt 0.218750 0.000000
vt 0.437500 0.781250
vt 0.437500 0.875000
vt 0.500000 0.875000
vt 0.500000 0.781250
vt 0.218750 0.875000
vt 0.218750 0.781250
vt 0.281250 0.781250
vt 0.281250 0.875000
s off
f 61/137/1 62/138/1 58/139/1 57/140/1
f 62/141/2 63/142/2 59/143/2 58/144/2
f 63/145/3 64/146/3 60/147/3 59/148/3
f 64/141/4 61/142/4 57/143/4 60/144/4
f 57/149/5 58/150/5 59/151/5 60/152/5
f 64/152/6 63/151/6 62/150/6 61/149/6
g insideconnector_P
v -0.062500 0.000000 -0.062500
v -0.062500 0.000000 -0.250000
v 0.062500 0.000000 -0.250000
v 0.062500 0.000000 -0.062500
v -0.062500 0.125000 -0.062500
v -0.062500 0.125000 -0.250000
v 0.062500 0.125000 -0.250000
v 0.062500 0.125000 -0.062500
vt 0.062500 0.718750
vt 0.062500 0.625000
vt 0.000000 0.625000
vt 0.000000 0.718750
vt 0.218750 0.062500
vt 0.281250 0.062500
vt 0.281250 0.000000
vt 0.218750 0.000000
vt 0.437500 0.625000
vt 0.437500 0.718750
vt 0.500000 0.718750
vt 0.500000 0.625000
vt 0.218750 0.718750
vt 0.218750 0.625000
vt 0.281250 0.625000
vt 0.281250 0.718750
s off
f 69/153/1 70/154/1 66/155/1 65/156/1
f 70/157/2 71/158/2 67/159/2 66/160/2
f 71/161/3 72/162/3 68/163/3 67/164/3
f 72/157/4 69/158/4 65/159/4 68/160/4
f 65/165/5 66/166/5 67/167/5 68/168/5
f 72/168/6 71/167/6 70/166/6 69/165/6
g center_X
v -0.062500 0.000000 0.062500
v -0.062500 0.000000 -0.062500
v 0.062500 0.000000 -0.062500
v 0.062500 0.000000 0.062500
v -0.062500 0.125000 0.062500
v -0.062500 0.125000 -0.062500
v 0.062500 0.125000 -0.062500
v 0.062500 0.125000 0.062500
vt 0.062500 0.781250
vt 0.062500 0.718750
vt 0.000000 0.718750
vt 0.000000 0.781250
vt 0.437500 0.718750
vt 0.437500 0.781250
vt 0.500000 0.781250
vt 0.500000 0.718750
vt 0.218750 0.281250
vt 0.218750 0.218750
vt 0.281250 0.218750
vt 0.281250 0.281250
s off
f 77/169/1 78/170/1 74/171/1 73/172/1
f 78/173/2 79/174/2 75/175/2 74/176/2
f 79/173/3 80/174/3 76/175/3 75/176/3
f 80/169/4 77/170/4 73/171/4 76/172/4
f 73/177/5 74/178/5 75/179/5 76/180/5
f 80/180/6 79/179/6 78/178/6 77/177/6
g center_PN
v -0.062500 0.000000 0.062500
v -0.062500 0.000000 -0.062500
v 0.062500 0.000000 -0.062500
v 0.062500 0.000000 0.062500
v -0.062500 0.125000 0.062500
v -0.062500 0.125000 -0.062500
v 0.062500 0.125000 -0.062500
v 0.062500 0.125000 0.062500
vt 0.062500 0.781250
vt 0.062500 0.718750
vt 0.000000 0.718750
vt 0.000000 0.781250
vt 0.218750 0.062500
vt 0.281250 0.062500
vt 0.281250 0.000000
vt 0.218750 0.000000
vt 0.437500 0.718750
vt 0.437500 0.781250
vt 0.500000 0.781250
vt 0.500000 0.718750
vt 0.218750 0.781250
vt 0.218750 0.718750
vt 0.281250 0.718750
vt 0.281250 0.781250
s off
f 85/181/1 86/182/1 82/183/1 81/184/1
f 86/185/2 87/186/2 83/187/2 82/188/2
f 87/189/3 88/190/3 84/191/3 83/192/3
f 88/185/4 85/186/4 81/187/4 84/188/4
f 81/193/5 82/194/5 83/195/5 84/196/5
f 88/196/6 87/195/6 86/194/6 85/193/6
