# Blender v2.67 (sub 0) OBJ File: 'fixture.blend'
# www.blender.org
g base
v 0.052092 0.788841 0.260458
v 0.052092 0.312391 0.260458
v 0.104183 0.312391 0.260458
v 0.104183 0.788841 0.260458
v 0.052091 0.788841 -0.260458
v 0.052091 0.312391 -0.260458
v 0.052092 0.312391 -0.208367
v 0.052092 0.312391 0.208367
v 0.052092 0.726327 0.208367
v 0.052092 0.726327 -0.208367
v 0.104183 0.312391 0.208367
v 0.104183 0.312391 -0.208367
v 0.104183 0.312391 -0.260458
v 0.104183 0.788841 -0.260458
v 0.104183 0.726327 -0.208367
v 0.104183 0.726327 0.208367
v -0.104183 0.788841 0.260458
v -0.104183 0.312391 0.260458
v -0.052092 0.312391 0.260458
v -0.052092 0.788841 0.260458
v -0.104184 0.788841 -0.260458
v -0.104184 0.312391 -0.260458
v -0.104183 0.312391 -0.208367
v -0.104183 0.312391 0.208367
v -0.104183 0.726327 0.208367
v -0.104183 0.726327 -0.208367
v -0.052092 0.312391 0.208367
v -0.052092 0.312391 -0.208367
v -0.052092 0.312391 -0.260458
v -0.052092 0.788841 -0.260458
v -0.052092 0.726327 -0.208367
v -0.052092 0.726327 0.208367
v -0.260458 0.788841 0.260459
v -0.260458 0.312391 0.260459
v -0.208367 0.312391 0.260458
v -0.208367 0.788841 0.260458
v -0.260459 0.788841 -0.260458
v -0.260459 0.312391 -0.260458
v -0.260459 0.312391 -0.208367
v -0.260458 0.312391 0.208367
v -0.260458 0.726327 0.208367
v -0.260459 0.726327 -0.208367
v -0.208367 0.312391 0.208367
v -0.208367 0.312391 -0.208367
v -0.208367 0.312391 -0.260458
v -0.208367 0.788841 -0.260458
v -0.208367 0.726327 -0.208367
v -0.208367 0.726327 0.208367
v 0.208367 0.788841 0.260458
v 0.208367 0.312391 0.260458
v 0.260459 0.312391 0.260458
v 0.260459 0.788841 0.260458
v 0.208366 0.788841 -0.260458
v 0.208366 0.312391 -0.260458
v 0.208367 0.312391 -0.208367
v 0.208367 0.312391 0.208367
v 0.208367 0.726327 0.208367
v 0.208367 0.726327 -0.208367
v 0.260458 0.312391 0.208367
v 0.260458 0.312391 -0.208367
v 0.260458 0.312391 -0.260459
v 0.260458 0.788841 -0.260459
v 0.260458 0.726327 -0.208367
v 0.260458 0.726327 0.208367
v -0.260417 0.788846 0.052083
v -0.260417 0.312500 0.052083
v -0.260417 0.312500 0.104167
v -0.260417 0.788846 0.104167
v 0.260417 0.788846 0.052083
v 0.260417 0.312500 0.052083
v 0.208333 0.312500 0.052083
v -0.208333 0.312500 0.052083
v -0.208333 0.726346 0.052083
v 0.208333 0.726346 0.052083
v -0.208333 0.312500 0.104167
v 0.208333 0.312500 0.104167
v 0.260417 0.312500 0.104167
v 0.260417 0.788846 0.104167
v 0.208333 0.726346 0.104167
v -0.208333 0.726346 0.104167
v -0.260417 0.788846 -0.104167
v -0.260417 0.312500 -0.104167
v -0.260417 0.312500 -0.052083
v -0.260417 0.788846 -0.052083
v 0.260417 0.788846 -0.104167
v 0.260417 0.312500 -0.104167
v 0.208333 0.312500 -0.104167
v -0.208333 0.312500 -0.104167
v -0.208333 0.726346 -0.104167
v 0.208333 0.726346 -0.104167
v -0.208333 0.312500 -0.052083
v 0.208333 0.312500 -0.052083
v 0.260417 0.312500 -0.052083
v 0.260417 0.788846 -0.052083
v 0.208333 0.726346 -0.052083
v -0.208333 0.726346 -0.052083
v -0.260417 0.788846 -0.260417
v -0.260417 0.312500 -0.208333
v -0.260417 0.788846 -0.208333
v 0.260417 0.788846 -0.260417
v 0.260417 0.312500 -0.260417
v 0.208333 0.312500 -0.260417
v -0.208333 0.312500 -0.260417
v -0.208333 0.726346 -0.260417
v 0.208333 0.726346 -0.260417
v 0.260417 0.312500 -0.208333
v 0.260417 0.788846 -0.208333
v 0.208333 0.726346 -0.208333
v -0.208333 0.726346 -0.208333
v -0.260417 0.788846 0.208333
v -0.260417 0.312500 0.208333
v -0.260417 0.788846 0.260417
v 0.260417 0.788846 0.208333
v 0.260417 0.312500 0.208333
v -0.208333 0.726346 0.208333
v 0.208333 0.726346 0.208333
v -0.208333 0.312500 0.260417
v 0.208333 0.312500 0.260417
v 0.260417 0.312500 0.260417
v 0.260417 0.788846 0.260417
v 0.208333 0.726346 0.260417
v -0.208333 0.726346 0.260417
v -0.156250 0.250000 0.156250
v -0.156250 0.250000 -0.156250
v 0.156250 0.250000 -0.156250
v 0.156250 0.250000 0.156250
v -0.156250 0.687500 0.156250
v -0.156250 0.687500 -0.156250
v 0.156250 0.687500 -0.156250
v 0.156250 0.687500 0.156250
v -0.260417 0.312500 -0.260417
v -0.260417 0.250000 -0.260417
v -0.260417 0.250000 0.260417
v -0.260417 0.312500 0.260417
v 0.260417 0.250000 -0.260417
v 0.260417 0.250000 0.260417
v -0.208333 0.250000 0.208333
v -0.208333 0.250000 -0.208333
v 0.208333 0.250000 0.208333
v 0.208333 0.250000 -0.208333
v -0.208333 0.312500 0.208333
v -0.208333 0.312500 -0.208333
v 0.208333 0.312500 0.208333
v 0.208333 0.312500 -0.208333
v 0.312500 0.125000 -0.312500
v -0.312500 0.500000 0.312500
v -0.312500 0.500000 -0.312500
v 0.312500 0.500000 -0.312500
v 0.312500 0.500000 0.312500
v 0.062510 0.663841 0.312550
v 0.062510 0.187391 0.312550
v 0.125020 0.187391 0.312550
v 0.125020 0.663841 0.312550
v 0.062510 0.663841 -0.312550
v 0.062510 0.187391 -0.312550
v 0.062510 0.187391 -0.250040
v 0.062510 0.187391 0.250040
v 0.062510 0.601327 0.250040
v 0.062510 0.601327 -0.250040
v 0.125020 0.187391 0.250040
v 0.125020 0.187391 -0.250040
v 0.125020 0.187391 -0.312550
v 0.125020 0.663841 -0.312550
v 0.125020 0.601327 -0.250040
v 0.125020 0.601327 0.250040
v -0.125020 0.663841 0.312550
v -0.125020 0.187391 0.312550
v -0.062510 0.187391 0.312550
v -0.062510 0.663841 0.312550
v -0.125020 0.663841 -0.312550
v -0.125020 0.187391 -0.312550
v -0.125020 0.187391 -0.250040
v -0.125020 0.187391 0.250040
v -0.125020 0.601327 0.250040
v -0.125020 0.601327 -0.250040
v -0.062510 0.187391 0.250040
v -0.062510 0.187391 -0.250040
v -0.062510 0.187391 -0.312550
v -0.062510 0.663841 -0.312550
v -0.062510 0.601327 -0.250040
v -0.062510 0.601327 0.250040
v -0.312550 0.663841 0.312550
v -0.312550 0.187391 0.312550
v -0.250040 0.187391 0.312550
v -0.250040 0.663841 0.312550
v -0.312550 0.663841 -0.312550
v -0.312550 0.187391 -0.312550
v -0.312550 0.187391 -0.250040
v -0.312550 0.187391 0.250040
v -0.312550 0.601327 0.250040
v -0.312550 0.601327 -0.250040
v -0.250040 0.187391 0.250040
v -0.250040 0.187391 -0.250040
v -0.250040 0.187391 -0.312550
v -0.250040 0.663841 -0.312550
v -0.250040 0.601327 -0.250040
v -0.250040 0.601327 0.250040
v 0.250040 0.663841 0.312550
v 0.250040 0.187391 0.312550
v 0.312550 0.187391 0.312550
v 0.312550 0.663841 0.312550
v 0.250040 0.663841 -0.312550
v 0.250040 0.187391 -0.312550
v 0.250040 0.187391 -0.250040
v 0.250040 0.187391 0.250040
v 0.250040 0.601327 0.250040
v 0.250040 0.601327 -0.250040
v 0.312550 0.187391 0.250040
v 0.312550 0.187391 -0.250040
v 0.312550 0.187391 -0.312550
v 0.312550 0.663841 -0.312550
v 0.312550 0.601327 -0.250040
v 0.312550 0.601327 0.250040
v -0.312500 0.663846 0.062500
v -0.312500 0.187500 0.062500
v -0.312500 0.187500 0.125000
v -0.312500 0.663846 0.125000
v 0.312500 0.663846 0.062500
v 0.312500 0.187500 0.062500
v 0.250000 0.187500 0.062500
v -0.250000 0.187500 0.062500
v -0.250000 0.601346 0.062500
v 0.250000 0.601346 0.062500
v -0.250000 0.187500 0.125000
v 0.250000 0.187500 0.125000
v 0.312500 0.187500 0.125000
v 0.312500 0.663846 0.125000
v 0.250000 0.601346 0.125000
v -0.250000 0.601346 0.125000
v -0.312500 0.663846 -0.125000
v -0.312500 0.187500 -0.125000
v -0.312500 0.187500 -0.062500
v -0.312500 0.663846 -0.062500
v 0.312500 0.663846 -0.125000
v 0.312500 0.187500 -0.125000
v 0.250000 0.187500 -0.125000
v -0.250000 0.187500 -0.125000
v -0.250000 0.601346 -0.125000
v 0.250000 0.601346 -0.125000
v -0.250000 0.187500 -0.062500
v 0.250000 0.187500 -0.062500
v 0.312500 0.187500 -0.062500
v 0.312500 0.663846 -0.062500
v 0.250000 0.601346 -0.062500
v -0.250000 0.601346 -0.062500
v -0.312500 0.663846 -0.312500
v -0.312500 0.187500 -0.250000
v -0.312500 0.663846 -0.250000
v 0.312500 0.663846 -0.312500
v 0.312500 0.187500 -0.312500
v 0.250000 0.187500 -0.312500
v -0.250000 0.187500 -0.312500
v -0.250000 0.601346 -0.312500
v 0.250000 0.601346 -0.312500
v 0.312500 0.187500 -0.250000
v 0.312500 0.663846 -0.250000
v 0.250000 0.601346 -0.250000
v -0.250000 0.601346 -0.250000
v -0.312500 0.663846 0.250000
v -0.312500 0.187500 0.250000
v -0.312500 0.663846 0.312500
v 0.312500 0.663846 0.250000
v 0.312500 0.187500 0.250000
v -0.250000 0.601346 0.250000
v 0.250000 0.601346 0.250000
v -0.250000 0.187500 0.312500
v 0.250000 0.187500 0.312500
v 0.312500 0.187500 0.312500
v 0.312500 0.663846 0.312500
v 0.250000 0.601346 0.312500
v -0.250000 0.601346 0.312500
v -0.187500 0.125000 0.187500
v -0.187500 0.125000 -0.187500
v 0.187500 0.125000 -0.187500
v 0.187500 0.125000 0.187500
v -0.187500 0.562500 0.187500
v -0.187500 0.562500 -0.187500
v 0.187500 0.562500 -0.187500
v 0.187500 0.562500 0.187500
v -0.312500 0.187500 -0.312500
v -0.312500 0.125000 -0.312500
v -0.312500 0.125000 0.312500
v -0.312500 0.187500 0.312500
v 0.312500 0.125000 0.312500
v -0.250000 0.125000 0.250000
v -0.250000 0.125000 -0.250000
v 0.250000 0.125000 0.250000
v 0.250000 0.125000 -0.250000
v -0.250000 0.187500 0.250000
v -0.250000 0.187500 -0.250000
v 0.250000 0.187500 0.250000
v 0.250000 0.187500 -0.250000
v -0.375000 0.000000 0.375000
v -0.375000 0.000000 -0.375000
v 0.375000 0.000000 -0.375000
v 0.375000 0.000000 0.375000
v -0.375000 0.125000 0.375000
v -0.375000 0.125000 -0.375000
v 0.375000 0.125000 -0.375000
v 0.375000 0.125000 0.375000
vt 0.218750 0.062500
vt 0.531250 0.062500
vt 0.531250 0.343750
vt 0.218750 0.343750
vt 0.031250 0.718750
vt 0.343750 0.718750
vt 0.343750 0.781250
vt 0.031250 0.781250
vt 0.156250 0.656250
vt 0.468750 0.656250
vt 0.468750 0.937500
vt 0.156250 0.937500
vt 0.093750 0.187500
vt 0.406250 0.187500
vt 0.406250 0.343750
vt 0.093750 0.343750
vt 0.468750 0.062500
vt 0.781250 0.062500
vt 0.781250 0.218750
vt 0.468750 0.218750
vt 0.031250 0.062500
vt 0.343750 0.062500
vt 0.343750 0.218750
vt 0.031250 0.218750
vt 0.468750 0.187500
vt 0.781250 0.187500
vt 0.781250 0.343750
vt 0.468750 0.343750
vn -0.000000 1.000000 0.000000
vn -1.000000 0.000000 0.000000
vn 0.000000 0.000000 -1.000000
vn 1.000000 -0.000000 0.000000
vn 0.000000 -0.000000 1.000000
vn -0.000000 -1.000000 0.000000
s off
f 149/1/1 148/2/1 147/3/1 146/4/1
f 297/5/2 298/6/2 294/7/2 293/8/2
f 298/5/3 299/6/3 295/7/3 294/8/3
f 299/5/4 300/6/4 296/7/4 295/8/4
f 300/5/5 297/6/5 293/7/5 296/8/5
f 293/9/6 294/10/6 295/11/6 296/12/6
f 300/9/1 299/10/1 298/11/1 297/12/1
f 146/13/2 147/14/2 281/15/2 282/16/2
f 147/17/3 148/18/3 145/19/3 281/20/3
f 148/21/4 149/22/4 284/23/4 145/24/4
f 149/25/5 146/26/5 282/27/5 284/28/5
