# Blender v2.67 (sub 0) OBJ File: 'lantern.blend'
# www.blender.org
g standtop
v -0.030000 1.000000 0.030000
v -0.030000 1.000000 -0.030000
v -0.030000 0.820000 -0.030000
v -0.030000 0.820000 0.030000
v 0.030000 1.000000 0.030000
v 0.030000 1.000000 -0.030000
v 0.030000 0.820000 -0.030000
v 0.030000 0.820000 0.030000
vt 0.531250 0.718750
vt 0.468750 0.718750
vt 0.468750 0.656250
vt 0.531250 0.656250
vt 0.031250 0.875000
vt 0.218750 0.875000
vt 0.218750 0.937500
vt 0.031250 0.937500
vn 0.000002 1.000000 0.000000
vn 0.000000 0.000000 -1.000000
vn -0.000001 -1.000000 0.000000
vn -0.000000 0.000000 1.000000
vn -1.000000 0.000001 0.000000
vn 1.000000 -0.000001 0.000000
s off
f 5/1/1 6/2/1 2/3/1 1/4/1
f 6/5/2 7/6/2 3/7/2 2/8/2
f 7/1/3 8/2/3 4/3/3 3/4/3
f 8/5/4 5/6/4 1/7/4 4/8/4
f 1/8/5 2/5/5 3/6/5 4/7/5
f 8/6/6 7/7/6 6/8/6 5/5/6
g standbottom
v -0.030000 0.180000 0.030000
v -0.030000 0.180000 -0.030000
v -0.030000 0.000000 -0.030000
v -0.030000 0.000000 0.030000
v 0.030000 0.180000 0.030000
v 0.030000 0.180000 -0.030000
v 0.030000 -0.000000 -0.030000
v 0.030000 -0.000000 0.030000
vt 0.531250 0.718750
vt 0.468750 0.718750
vt 0.468750 0.656250
vt 0.531250 0.656250
vt 0.031250 0.875000
vt 0.218750 0.875000
vt 0.218750 0.937500
vt 0.031250 0.937500
vn 0.000000 1.000000 0.000000
vn -0.000000 -1.000000 0.000000
vn -1.000000 0.000002 0.000000
vn 1.000000 -0.000002 0.000000
s off
f 13/9/7 14/10/7 10/11/7 9/12/7
f 14/13/2 15/14/2 11/15/2 10/16/2
f 15/9/8 16/10/8 12/11/8 11/12/8
f 16/13/4 13/14/4 9/15/4 12/16/4
f 9/16/9 10/13/9 11/14/9 12/15/9
f 16/14/10 15/15/10 14/16/10 13/13/10
g goldringbottom
v -0.050000 0.180000 0.050000
v -0.050000 0.180000 -0.050000
v 0.050000 0.180000 -0.050000
v 0.050000 0.180000 0.050000
v -0.050000 0.300000 0.050000
v -0.050000 0.300000 -0.050000
v 0.050000 0.300000 -0.050000
v 0.050000 0.300000 0.050000
vt 0.906250 0.843750
vt 0.750000 0.843750
vt 0.750000 0.687500
vt 0.906250 0.687500
vn -1.000000 0.000000 0.000000
vn 1.000000 -0.000000 0.000000
s off
f 21/17/11 22/18/11 18/19/11 17/20/11
f 22/18/2 23/19/2 19/20/2 18/17/2
f 23/17/12 24/18/12 20/19/12 19/20/12
f 24/18/4 21/19/4 17/20/4 20/17/4
f 17/17/8 18/18/8 19/19/8 20/20/8
f 24/19/7 23/20/7 22/17/7 21/18/7
g standside
v -0.030000 0.750000 -0.112046
v 0.030000 0.750000 -0.112046
v 0.030000 0.750000 0.500000
v -0.030000 0.750000 0.500000
v -0.030000 0.810000 -0.112046
v 0.030000 0.810000 -0.112046
v 0.030000 0.810000 0.500000
v -0.030000 0.810000 0.500000
vt 0.531250 0.718750
vt 0.468750 0.718750
vt 0.468750 0.656250
vt 0.531250 0.656250
vt 0.031250 0.875000
vt 0.625000 0.875000
vt 0.625000 0.937500
vt 0.031250 0.937500
vn 0.000001 0.000000 -1.000000
vn 1.000000 0.000000 0.000001
vn -0.000001 0.000000 1.000000
vn -1.000000 0.000000 -0.000001
s off
f 29/21/13 30/22/13 26/23/13 25/24/13
f 30/25/14 31/26/14 27/27/14 26/28/14
f 31/21/15 32/22/15 28/23/15 27/24/15
f 32/25/16 29/26/16 25/27/16 28/28/16
f 25/28/8 26/25/8 27/26/8 28/27/8
f 32/26/7 31/27/7 30/28/7 29/25/7
g goldringtop
v -0.050000 0.740000 0.050000
v -0.050000 0.740000 -0.050000
v 0.050000 0.740000 -0.050000
v 0.050000 0.740000 0.050000
v -0.050000 0.820000 0.050000
v -0.050000 0.820000 -0.050000
v 0.050000 0.820000 -0.050000
v 0.050000 0.820000 0.050000
vt 0.906250 0.843750
vt 0.750000 0.843750
vt 0.750000 0.687500
vt 0.906250 0.687500
s off
f 37/29/11 38/30/11 34/31/11 33/32/11
f 38/30/2 39/31/2 35/32/2 34/29/2
f 39/29/12 40/30/12 36/31/12 35/32/12
f 40/30/4 37/31/4 33/32/4 36/29/4
f 33/29/8 34/30/8 35/31/8 36/32/8
f 40/31/7 39/32/7 38/29/7 37/30/7
g bulb
v -0.150000 0.700000 0.150000
v -0.150000 0.700000 -0.150000
v 0.150000 0.700000 -0.150000
v 0.150000 0.700000 0.150000
v -0.150000 0.740000 0.150000
v -0.150000 0.740000 -0.150000
v 0.150000 0.740000 -0.150000
v 0.150000 0.740000 0.150000
v -0.150000 0.260000 0.150000
v -0.150000 0.260000 -0.150000
v 0.150000 0.260000 -0.150000
v 0.150000 0.260000 0.150000
v -0.150000 0.300000 0.150000
v -0.150000 0.300000 -0.150000
v 0.150000 0.300000 -0.150000
v 0.150000 0.300000 0.150000
v -0.100000 0.300000 0.100000
v -0.100000 0.300000 -0.100000
v 0.100000 0.300000 -0.100000
v 0.100000 0.300000 0.100000
v -0.100000 0.700000 0.100000
v -0.100000 0.700000 -0.100000
v 0.100000 0.700000 -0.100000
v 0.100000 0.700000 0.100000
vt 0.031250 0.343750
vt 0.218750 0.343750
vt 0.218750 0.531250
vt 0.031250 0.531250
vt 0.593750 0.062500
vt 0.781250 0.062500
vt 0.781250 0.343750
vt 0.593750 0.343750
vt 0.031250 0.062500
vt 0.218750 0.062500
vt 0.406250 0.062500
vt 0.406250 0.343750
s off
f 45/33/11 46/34/11 42/35/11 41/36/11
f 46/33/2 47/34/2 43/35/2 42/36/2
f 47/33/12 48/36/12 44/35/12 43/34/12
f 48/33/4 45/36/4 41/35/4 44/34/4
f 41/33/8 42/34/8 43/35/8 44/36/8
f 48/36/7 47/35/7 46/34/7 45/33/7
f 53/33/11 54/34/11 50/35/11 49/36/11
f 54/33/2 55/34/2 51/35/2 50/36/2
f 55/33/12 56/36/12 52/35/12 51/34/12
f 56/33/4 53/36/4 49/35/4 52/34/4
f 49/33/8 50/34/8 51/35/8 52/36/8
f 56/33/7 55/34/7 54/35/7 53/36/7
f 61/37/11 62/38/11 58/39/11 57/40/11
f 62/41/2 63/42/2 59/34/2 58/33/2
f 63/43/12 64/37/12 60/40/12 59/44/12
f 64/42/4 61/43/4 57/44/4 60/34/4
f 57/33/8 58/34/8 59/35/8 60/36/8
f 64/33/7 63/34/7 62/35/7 61/36/7
